<svg width="24" height="24" viewBox="0 0 24 24" fill="none" xmlns="http://www.w3.org/2000/svg">
<g clip-path="url(#clip0_220_5698)">
<path d="M0.158623 12.3845L5.61304 17.839C5.80898 18.0678 6.15331 18.0945 6.3821 17.8985C6.6109 17.7025 6.63757 17.3582 6.44159 17.1294C6.42331 17.1081 6.40343 17.0882 6.3821 17.0699L1.86039 12.5427H23.4546C23.7558 12.5427 24 12.2985 24 11.9973C24 11.696 23.7558 11.4518 23.4546 11.4518H1.86039L6.3821 6.93011C6.6109 6.73417 6.63757 6.38984 6.44159 6.16104C6.24561 5.93225 5.90132 5.90558 5.67253 6.10156C5.6512 6.11984 5.63128 6.13972 5.61304 6.16104L0.158575 11.6155C-0.0528755 11.8282 -0.0528736 12.1718 0.158623 12.3845Z" fill="white"/>
</g>
<defs>
<clipPath id="clip0_220_5698">
<rect width="24" height="24" fill="white" transform="matrix(-1 0 0 -1 24 24)"/>
</clipPath>
</defs>
</svg>
