<svg width="80" height="80" viewBox="0 0 80 80" fill="none" xmlns="http://www.w3.org/2000/svg">
<circle cx="40" cy="40" r="40" fill="white"/>
<path d="M16.87 59.8525C16.705 60.1075 16.7125 60.4375 16.8925 60.685C17.035 60.8875 17.2675 61.0075 17.5075 61.0075C17.56 61.0075 17.6125 61.0075 17.6725 60.9925L24.565 59.4625C26.5525 60.475 28.78 61.0075 31.015 61.0075C38.7925 61.0075 45.13 54.7375 45.25 46.9825C48.625 47.8975 52.3225 47.5525 55.4575 45.9625L62.35 47.485C62.4025 47.5 62.455 47.5 62.515 47.5C62.755 47.5 62.9875 47.38 63.13 47.1775C63.3025 46.93 63.31 46.6 63.1525 46.345L60.34 41.8975C62.23 39.43 63.265 36.3775 63.265 33.2425C63.265 25.3825 56.875 18.9925 49.015 18.9925C41.155 18.9925 34.9 25.2625 34.78 33.01C33.58 32.68 32.32 32.4925 31.015 32.4925C23.14 32.5 16.75 38.89 16.75 46.75C16.75 49.8775 17.785 52.93 19.6825 55.405L16.87 59.8525ZM49 20.5C56.0275 20.5 61.75 26.2225 61.75 33.25C61.75 36.2125 60.715 39.1 58.825 41.3725C58.615 41.62 58.5925 41.98 58.765 42.25L60.9025 45.625L55.5025 44.4325C55.33 44.395 55.1425 44.4175 54.985 44.5C51.9925 46.09 48.385 46.3975 45.175 45.3925C44.665 39.985 41.11 35.4475 36.25 33.5125C36.25 33.4225 36.2425 33.3325 36.2425 33.2425C36.2425 26.215 41.965 20.4925 48.9925 20.4925L49 20.5ZM18.25 46.75C18.25 39.7225 23.9725 34 31 34C38.0275 34 43.75 39.7225 43.75 46.75C43.75 53.7775 38.0275 59.5 31 59.5C28.915 59.5 26.845 58.9825 25.0075 58C24.895 57.94 24.775 57.91 24.655 57.91C24.6025 57.91 24.5425 57.91 24.49 57.925L19.0975 59.1175L21.235 55.7425C21.4075 55.465 21.385 55.1125 21.1825 54.865C19.2925 52.585 18.2575 49.6975 18.2575 46.735L18.25 46.75Z" fill="black"/>
<path d="M31 53.5C31.6213 53.5 32.125 52.9963 32.125 52.375C32.125 51.7537 31.6213 51.25 31 51.25C30.3787 51.25 29.875 51.7537 29.875 52.375C29.875 52.9963 30.3787 53.5 31 53.5Z" fill="black"/>
<path d="M31 40.75C32.2375 40.75 33.25 41.7625 33.25 43C33.25 44.2375 32.2375 45.25 31 45.25C30.5875 45.25 30.25 45.5875 30.25 46V49.75H31.75V46.675C33.46 46.33 34.75 44.815 34.75 43C34.75 40.93 33.07 39.25 31 39.25C28.93 39.25 27.25 40.93 27.25 43H28.75C28.75 41.7625 29.7625 40.75 31 40.75Z" fill="black"/>
<path d="M43 28H55V29.5H43V28Z" fill="black"/>
<path d="M43 32.5H55V34H43V32.5Z" fill="black"/>
<path d="M46 37H55V38.5H46V37Z" fill="black"/>
</svg>
