<svg width="81" height="80" viewBox="0 0 81 80" fill="none" xmlns="http://www.w3.org/2000/svg">
<circle cx="40.25" cy="40" r="40" fill="white"/>
<path d="M62.6087 23.7549L54.4771 16.9953C54.3434 16.8841 54.1709 16.8304 53.9972 16.8466C53.8238 16.8626 53.6639 16.9469 53.5527 17.0809L51.2187 19.8933C51.1694 19.8766 51.1192 19.8613 51.0686 19.8473C51.0643 19.8461 51.06 19.845 51.0556 19.8438L48.7581 19.2603C48.7446 19.257 48.7311 19.254 48.7174 19.2514C46.7952 18.8907 45.2333 19.9274 44.8308 21.8298C44.7753 22.0924 44.7153 22.3808 44.6513 22.6885C44.1666 25.0173 43.4383 28.5173 42.7058 30.1485C40.9627 32.2487 39.8995 33.4788 39.5287 33.8235C39.2027 33.8606 38.9243 33.8882 38.6745 33.913C37.8719 33.9924 37.3876 34.0403 36.8281 34.2635C35.576 34.763 33.6818 36.2195 32.0106 37.5047C31.4696 37.9206 30.9587 38.3134 30.5441 38.6143C29.3308 39.4946 29.0213 41.1633 29.8394 42.4131C30.342 43.1811 30.991 43.4753 31.6671 43.5243L21.8242 55.3279C21.7126 55.4616 21.6588 55.6343 21.6747 55.8078C21.6905 55.9814 21.7747 56.1414 21.9087 56.2528L30.031 63.0048C30.1493 63.1031 30.2979 63.1563 30.4505 63.1563C30.4706 63.1563 30.4908 63.1554 30.5111 63.1535C30.6845 63.1375 30.8444 63.0531 30.9556 62.9192L33.4443 59.9199C33.8921 60.3245 34.4641 60.5459 35.0689 60.5459H35.0706C35.6859 60.5455 36.2673 60.316 36.7182 59.8977C36.7705 59.9638 36.8261 60.0274 36.8851 60.0884C37.3532 60.5721 37.9677 60.8385 38.6155 60.8385H38.6173C39.9045 60.8375 40.9604 59.8308 41.0406 58.5641C41.3829 58.7433 41.7649 58.8381 42.161 58.8381H42.1625C42.8094 58.8377 43.4189 58.5841 43.8785 58.1239C44.3383 57.6637 44.5912 57.054 44.5907 56.407L44.5899 55.2342C44.931 55.4117 45.311 55.5057 45.7051 55.5057H45.7069C46.3539 55.5053 46.9633 55.2518 47.423 54.7916C47.8828 54.3314 48.1358 53.7215 48.1352 53.0782L48.1872 42.16L49.421 40.6733L49.6475 40.8676C50.1004 41.256 50.6574 41.4461 51.2119 41.4461C51.89 41.4461 52.5645 41.1616 53.0395 40.6077C53.0467 40.5993 53.0537 40.5906 53.0606 40.5819C53.4876 40.0296 53.6671 39.3931 53.6095 38.7873C54.2466 38.7558 54.8702 38.4733 55.3172 37.952C55.3245 37.9436 55.3315 37.935 55.3383 37.9262C55.7659 37.373 55.9453 36.7356 55.8871 36.1293C55.909 36.1281 55.9307 36.1284 55.9527 36.1267C56.5947 36.0775 57.1779 35.7827 57.5951 35.2964C57.6023 35.2879 57.6092 35.2793 57.6162 35.2706C58.0395 34.7232 58.2175 34.0833 58.1618 33.4761C58.8001 33.4454 59.425 33.163 59.8728 32.6408C60.7363 31.634 60.6198 30.1124 59.6131 29.2488L59.1978 28.8927L62.6948 24.679C62.9254 24.3999 62.8872 23.9865 62.6087 23.7549ZM45.9362 22.9559C46 22.6497 46.0596 22.3627 46.1149 22.1014C46.2006 21.6963 46.5733 20.4903 47.9564 20.4903C48.1101 20.4903 48.2764 20.5053 48.4562 20.5379L50.7252 21.1141C51.0961 21.2178 51.4063 21.4613 51.5985 21.7999C51.7918 22.1403 51.8415 22.5333 51.7385 22.9068C51.5247 23.6824 50.7197 24.1394 49.9447 23.9258L48.6068 23.5562C48.3572 23.4873 48.0903 23.5714 47.9255 23.7713C47.7923 23.9329 47.5052 24.2865 47.1129 24.7692C46.3268 25.7368 45.6001 26.6281 44.9328 27.4435C45.3198 25.9175 45.6652 24.258 45.9362 22.9559ZM30.3648 61.5755L23.2531 55.6636L32.6405 44.4063L32.6393 58.1177C32.6394 58.3297 32.6668 58.5377 32.7196 58.7377L30.3648 61.5755ZM52.032 39.7653C51.8439 39.9782 51.5834 40.1072 51.2964 40.1292C51.0042 40.1512 50.7215 40.06 50.5015 39.8712L48.6611 38.2927C48.1231 37.8314 48.2188 37.1831 48.5537 36.7392C48.9468 36.2941 49.6289 36.2448 50.0821 36.6317L51.9246 38.2118L51.9253 38.2125C52.4626 38.6739 52.3668 39.3218 52.032 39.7653ZM54.3097 37.1096C53.9157 37.5557 53.2326 37.6043 52.7791 37.2154L50.2 35.0034C49.662 34.542 49.7576 33.8936 50.0926 33.4497C50.4866 33.0041 51.1688 32.9554 51.6221 33.343C51.6225 33.3433 51.6227 33.3437 51.6231 33.3439L54.2023 35.556C54.2023 35.556 54.2024 35.5561 54.2025 35.5561C54.2025 35.5562 54.2026 35.5562 54.2026 35.5563C54.7403 36.0178 54.6447 36.6659 54.3097 37.1096ZM56.5875 34.454C56.3993 34.6668 56.1388 34.7958 55.8517 34.8179C55.5599 34.8405 55.277 34.7487 55.0568 34.5598L52.4777 32.3478C51.9397 31.8863 52.0353 31.238 52.3703 30.7941C52.7639 30.3487 53.4464 30.2999 53.8996 30.6871C53.8997 30.6873 53.8999 30.6873 53.9002 30.6875C53.9005 30.6878 53.9008 30.688 53.9011 30.6883L56.4801 32.9003C56.4812 32.9013 56.4825 32.9021 56.4837 32.9031C56.4849 32.9042 56.4859 32.9054 56.4872 32.9064C57 33.3336 56.926 34.0048 56.5875 34.454ZM58.8759 31.786C58.6871 32.0062 58.422 32.1397 58.1296 32.1621C57.8365 32.1846 57.5548 32.0929 57.3346 31.904L54.7555 29.6919C54.2175 29.2305 54.313 28.5823 54.6481 28.1384C54.8361 27.9255 55.0967 27.7965 55.3837 27.7744C55.6757 27.7522 55.9585 27.8437 56.1787 28.0325L58.7579 30.2446C59.2076 30.6304 59.2617 31.3363 58.8759 31.786ZM58.2008 28.0378L57.0332 27.0364C56.547 26.6193 55.9254 26.4169 55.2836 26.466C54.6415 26.5151 54.0583 26.81 53.6412 27.2962C53.634 27.3047 53.627 27.3133 53.6201 27.322C53.1928 27.8747 53.0133 28.5115 53.0711 29.1174C52.4338 29.149 51.8101 29.4309 51.3633 29.9519C51.3561 29.9603 51.3491 29.9689 51.3422 29.9778C50.9151 30.5303 50.7356 31.1671 50.7932 31.7728C50.1561 31.8044 49.5326 32.0863 49.0857 32.6074C49.0785 32.6159 49.0714 32.6245 49.0646 32.6333C48.4615 33.4135 48.3513 34.3613 48.7066 35.153C48.2699 35.2782 47.8637 35.5273 47.5468 35.8968C47.5396 35.9053 47.5325 35.9139 47.5257 35.9227C46.6839 37.0116 46.802 38.4273 47.8066 39.2888L48.4241 39.8184L47.0266 41.5024C46.9295 41.6194 46.8761 41.7664 46.8753 41.9184L46.8224 53.0754C46.8226 53.3718 46.7061 53.6517 46.4942 53.8638C46.2823 54.0759 46.0023 54.1928 45.705 54.193C45.409 54.193 45.1292 54.0765 44.9174 53.8649C44.7099 53.6578 44.5936 53.3855 44.5883 53.0965L44.5863 50.2071C44.5861 49.8449 44.2923 49.5513 43.9296 49.5513C43.5673 49.5516 43.2736 49.8456 43.2738 50.2081L43.278 56.4078C43.2782 56.7041 43.1616 56.984 42.9497 57.1962C42.7378 57.4083 42.4578 57.5253 42.1607 57.5254C41.8647 57.5254 41.5847 57.4089 41.3729 57.1972C41.1671 56.9917 41.0508 56.7222 41.0439 56.4357L41.0401 50.7722C41.0399 50.4099 40.7461 50.1164 40.3834 50.1164C40.021 50.1167 39.7275 50.4107 39.7276 50.7731L39.7328 58.408C39.7333 59.0238 39.2324 59.5252 38.6154 59.5257C38.122 59.5262 37.6853 59.1529 37.5362 58.6947C37.4724 58.4983 37.4988 58.3155 37.4986 58.1143L37.4939 51.0169C37.4936 50.6547 37.1999 50.3612 36.8371 50.3612C36.4748 50.3614 36.1811 50.6554 36.1814 51.0179L36.1861 58.1153C36.1867 58.4104 36.0661 58.6954 35.8579 58.9038C35.6461 59.1159 35.366 59.2328 35.0688 59.233C34.7728 59.233 34.493 59.1165 34.2811 58.9048C34.0689 58.6929 33.952 58.4131 33.9518 58.1171L33.9532 42.6096C33.9545 42.5538 33.9486 42.4973 33.9351 42.441C33.9273 42.4085 33.9171 42.3769 33.9046 42.3463C33.8549 42.2239 33.7714 42.1239 33.6681 42.053C33.634 42.0296 33.5973 42.0093 33.5585 41.9925C33.4156 41.9302 33.2497 41.9184 33.0901 41.9716C31.5952 42.4684 31.2191 42.1239 30.9377 41.6942C30.5037 41.0311 30.6694 40.1448 31.315 39.6764C31.7444 39.3648 32.2623 38.9665 32.8107 38.5448C34.3349 37.3728 36.2316 35.9142 37.3144 35.4823C37.7015 35.3279 38.07 35.2913 38.8038 35.2188C39.1016 35.1893 39.439 35.1558 39.8514 35.107C40.1843 35.0675 40.3362 35.0495 43.5247 31.2187C45.1761 29.2345 48.527 25.1102 48.6698 24.9348L49.5958 25.1907C51.0696 25.5969 52.5978 24.7285 53.004 23.2553C53.2001 22.5438 53.1063 21.7968 52.74 21.1516C52.6258 20.9504 52.4895 20.7669 52.3344 20.6038L54.1433 18.4242L61.2656 24.3448L58.2008 28.0378ZM22.4652 42.975C22.8276 42.975 23.1214 42.6812 23.1214 42.3187C23.1214 40.1146 24.9146 38.3214 27.1187 38.3214C27.4812 38.3214 27.775 38.0276 27.775 37.6652C27.775 37.3027 27.4812 37.0089 27.1187 37.0089C24.9146 37.0089 23.1214 35.2158 23.1214 33.0115C23.1214 32.6491 22.8276 32.3553 22.4652 32.3553C22.1027 32.3553 21.8089 32.6491 21.8089 33.0115C21.8089 35.2157 20.0157 37.0089 17.8115 37.0089C17.4491 37.0089 17.1553 37.3027 17.1553 37.6652C17.1553 38.0276 17.4491 38.3214 17.8115 38.3214C20.0157 38.3214 21.8089 40.1146 21.8089 42.3187C21.8089 42.6812 22.1027 42.975 22.4652 42.975ZM20.367 37.6652C21.2491 37.1788 21.9789 36.4489 22.4653 35.5668C22.9516 36.4489 23.6815 37.1789 24.5636 37.6652C23.6815 38.1514 22.9516 38.8814 22.4653 39.7635C21.9789 38.8814 21.2491 38.1514 20.367 37.6652ZM17.8116 22.8098C20.0158 22.8098 21.809 24.603 21.809 26.8071C21.809 27.1696 22.1028 27.4634 22.4653 27.4634C22.8277 27.4634 23.1215 27.1696 23.1215 26.8071C23.1215 24.603 24.9147 22.8098 27.1188 22.8098C27.4813 22.8098 27.7751 22.516 27.7751 22.1536C27.7751 21.7911 27.4813 21.4973 27.1188 21.4973C24.9147 21.4973 23.1215 19.7042 23.1215 17.5C23.1215 17.1376 22.8277 16.8438 22.4653 16.8438C22.1028 16.8438 21.809 17.1376 21.809 17.5C21.809 19.7042 20.0158 21.4973 17.8116 21.4973C17.4492 21.4973 17.1554 21.7911 17.1554 22.1536C17.1554 22.516 17.4492 22.8098 17.8116 22.8098ZM22.4652 20.0553C22.9516 20.9373 23.6814 21.6672 24.5635 22.1536C23.6814 22.6399 22.9516 23.3698 22.4652 24.2519C21.9788 23.3698 21.249 22.6399 20.3669 22.1536C21.2491 21.6673 21.9789 20.9374 22.4652 20.0553ZM26.0528 30.0442C26.0528 30.4067 26.3466 30.7005 26.7091 30.7005C28.9132 30.7005 30.7065 32.4936 30.7065 34.6978C30.7065 35.0602 31.0003 35.354 31.3627 35.354C31.7251 35.354 32.019 35.0602 32.019 34.6978C32.019 32.4936 33.8121 30.7005 36.0163 30.7005C36.3787 30.7005 36.6725 30.4067 36.6725 30.0442C36.6725 29.6818 36.3787 29.388 36.0163 29.388C33.8121 29.388 32.019 27.5948 32.019 25.3907C32.019 25.0282 31.7251 24.7344 31.3627 24.7344C31.0003 24.7344 30.7065 25.0282 30.7065 25.3907C30.7065 27.5948 28.9132 29.388 26.7091 29.388C26.3466 29.388 26.0528 29.6818 26.0528 30.0442ZM31.3627 27.9459C31.8491 28.828 32.5789 29.5578 33.461 30.0442C32.5789 30.5306 31.8491 31.2604 31.3627 32.1425C30.8763 31.2604 30.1465 30.5306 29.2644 30.0442C30.1465 29.5578 30.8763 28.828 31.3627 27.9459Z" fill="black"/>
</svg>
