<svg width="81" height="80" viewBox="0 0 81 80" fill="none" xmlns="http://www.w3.org/2000/svg">
<circle cx="40.5" cy="40" r="40" fill="white"/>
<path d="M57.905 44.1937L52.2299 40.1439L49.2966 34.2836C48.9176 33.5206 48.3326 32.8789 47.6078 32.4312C46.883 31.9834 46.0474 31.7474 45.1954 31.75H36.8043C35.952 31.7471 35.116 31.9829 34.3908 32.4307C33.6657 32.8785 33.0804 33.5203 32.7013 34.2836L29.7679 40.1439L24.102 44.1882C23.4364 44.651 22.964 45.342 22.7744 46.1302C22.5848 46.9184 22.6912 47.7487 23.0735 48.4636C23.2969 48.8536 23.5994 49.1927 23.9615 49.459C24.3236 49.7253 24.7374 49.913 25.1764 50.01C25.4007 50.059 25.6297 50.0835 25.8593 50.0833C26.1166 50.0801 26.3726 50.0462 26.6219 49.9825C26.5409 50.7964 26.7327 51.6142 27.1671 52.3073C27.6015 53.0004 28.2539 53.5295 29.0218 53.8114L31.6123 54.7583C31.3272 55.2862 31.1764 55.8762 31.1732 56.4761C31.174 56.9091 31.2487 57.3388 31.3941 57.7466C31.6597 58.4573 32.1361 59.0699 32.7594 59.5024C33.3828 59.9349 34.1233 60.1666 34.882 60.1666C35.309 60.1666 35.7328 60.0921 36.1342 59.9466L40.9999 58.172L45.8665 59.943C46.5663 60.2005 47.3279 60.2394 48.0503 60.0544C48.7727 59.8695 49.4219 59.4694 49.9119 58.9073C50.4019 58.3451 50.7096 57.6474 50.7942 56.9065C50.8788 56.1656 50.7363 55.4164 50.3856 54.7583L52.9825 53.8132C53.6933 53.5512 54.3068 53.078 54.7407 52.4571C55.1746 51.8363 55.4081 51.0974 55.4099 50.34C55.4099 50.2208 55.3906 50.1025 55.3787 49.9834C55.6261 50.0471 55.8804 50.0806 56.1359 50.0833C56.72 50.0845 57.2934 49.9261 57.7942 49.6253C58.295 49.3245 58.7041 48.8927 58.9775 48.3765C59.3354 47.6676 59.424 46.8529 59.2267 46.0837C59.0295 45.3145 58.5599 44.6429 57.905 44.1937ZM34.5832 47.975L31.5527 46.875C31.516 46.8612 31.4775 46.8576 31.44 46.8456L34.1533 44.9087C34.3074 44.7998 34.4513 44.677 34.5832 44.542V47.975ZM35.509 58.2224C35.0459 58.3888 34.5359 58.3668 34.0889 58.1611C33.6418 57.9553 33.2933 57.5824 33.1184 57.1224C33.0447 56.9142 33.0069 56.6951 33.0065 56.4743C33.0081 56.0854 33.1322 55.7069 33.3613 55.3926L38.3232 57.1985L35.509 58.2224ZM48.8832 57.1086C48.7139 57.5716 48.368 57.9486 47.9213 58.1571C47.4746 58.3655 46.9634 58.3883 46.4999 58.2206L29.6479 52.089C29.4182 52.0053 29.2074 51.8772 29.0272 51.7121C28.8471 51.5469 28.7013 51.3479 28.5981 51.1263C28.4949 50.9048 28.4363 50.6651 28.4257 50.421C28.4151 50.1768 28.4527 49.933 28.5364 49.7033C28.6201 49.4737 28.7481 49.2628 28.9133 49.0827C29.0785 48.9026 29.2775 48.7567 29.499 48.6535C29.7206 48.5503 29.9602 48.4918 30.2044 48.4812C30.4486 48.4706 30.6924 48.5082 30.922 48.5919L47.7676 54.7226C48.2316 54.8915 48.6097 55.2376 48.8188 55.6849C49.028 56.1322 49.0511 56.6443 48.8832 57.1086ZM52.3592 52.0908L49.0271 53.3045C48.8274 53.1832 48.6165 53.0813 48.3974 53.0001L43.682 51.2832L51.0768 48.59C51.5399 48.4234 52.05 48.4453 52.4971 48.6511C52.9443 48.8568 53.2927 49.2299 53.4675 49.6901C53.5411 49.8982 53.5789 50.1173 53.5793 50.3381C53.5791 50.7202 53.4617 51.0931 53.2431 51.4065C53.0244 51.7198 52.715 51.9587 52.3564 52.0908H52.3592ZM47.4239 47.9658V44.5356C47.5552 44.6702 47.6981 44.7929 47.851 44.9023L50.5644 46.8392C50.5268 46.8511 50.4883 46.8539 50.4516 46.8676L47.4239 47.9658ZM57.3596 47.5075C57.2646 47.6776 57.1353 47.8261 56.9798 47.9437C56.8244 48.0612 56.6462 48.1452 56.4566 48.1902C56.267 48.2353 56.0701 48.2405 55.8784 48.2055C55.6867 48.1705 55.5044 48.0961 55.3429 47.9869L48.9199 43.4035C48.7376 43.2732 48.5897 43.1005 48.489 42.9003L47.3249 40.5894C47.2324 40.4049 47.0804 40.257 46.8935 40.1697C46.7066 40.0823 46.4956 40.0606 46.2948 40.108C46.094 40.1553 45.915 40.2691 45.7869 40.4308C45.6588 40.5926 45.5889 40.7928 45.5887 40.9991V48.6377L41.0054 50.3088L36.422 48.6386V40.9991C36.4218 40.7928 36.352 40.5926 36.2238 40.4308C36.0957 40.2691 35.9167 40.1553 35.7159 40.108C35.5151 40.0606 35.3042 40.0823 35.1172 40.1697C34.9303 40.257 34.7783 40.4049 34.6859 40.5894L33.5281 42.903C33.4274 43.105 33.2785 43.2791 33.0945 43.41L26.6724 47.9933C26.5154 48.1058 26.3366 48.1839 26.1474 48.2226C25.9583 48.2614 25.7631 48.2599 25.5746 48.2182C25.3861 48.1765 25.2085 48.0956 25.0533 47.9807C24.8982 47.8659 24.7689 47.7196 24.674 47.5515C24.5146 47.2319 24.4779 46.865 24.5708 46.5203C24.6637 46.1755 24.8798 45.8767 25.1782 45.6806L31.0302 41.5042C31.1522 41.4173 31.251 41.3018 31.318 41.1678L34.3513 35.104C34.5782 34.6474 34.928 34.2632 35.3613 33.9945C35.7947 33.7258 36.2944 33.5834 36.8043 33.5833H45.1954C45.707 33.5816 46.2089 33.7231 46.6442 33.9918C47.0795 34.2606 47.4309 34.6459 47.6585 35.104L50.6918 41.1678C50.7588 41.3018 50.8576 41.4173 50.9796 41.5042L56.8399 45.6833C57.1302 45.8773 57.3417 46.1686 57.4365 46.5046C57.5313 46.8407 57.503 47.1995 57.3569 47.5166L57.3596 47.5075Z" fill="black"/>
<path d="M46.9587 25.7916C46.9587 24.6132 46.6092 23.4612 45.9545 22.4814C45.2998 21.5015 44.3692 20.7378 43.2805 20.2869C42.1917 19.8359 40.9937 19.7179 39.8379 19.9478C38.6821 20.1777 37.6204 20.7452 36.7872 21.5785C35.9539 22.4118 35.3864 23.4734 35.1565 24.6292C34.9266 25.785 35.0446 26.9831 35.4955 28.0718C35.9465 29.1605 36.7102 30.0911 37.6901 30.7458C38.6699 31.4005 39.8219 31.75 41.0003 31.75C42.58 31.748 44.0944 31.1197 45.2114 30.0027C46.3283 28.8857 46.9567 27.3713 46.9587 25.7916ZM41.0003 29.9166C40.1845 29.9166 39.387 29.6747 38.7086 29.2215C38.0302 28.7682 37.5015 28.124 37.1893 27.3702C36.8771 26.6165 36.7954 25.7871 36.9546 24.9869C37.1138 24.1867 37.5066 23.4517 38.0835 22.8748C38.6604 22.2979 39.3954 21.9051 40.1956 21.7459C40.9958 21.5867 41.8252 21.6684 42.5789 21.9806C43.3326 22.2929 43.9769 22.8216 44.4301 23.4999C44.8834 24.1783 45.1253 24.9758 45.1253 25.7916C45.1241 26.8853 44.6891 27.9338 43.9158 28.7071C43.1425 29.4804 42.094 29.9154 41.0003 29.9166Z" fill="black"/>
<path d="M26.3337 29H27.2503V29.9166C27.2503 30.1598 27.3469 30.3929 27.5188 30.5648C27.6907 30.7367 27.9239 30.8333 28.167 30.8333C28.4101 30.8333 28.6433 30.7367 28.8152 30.5648C28.9871 30.3929 29.0837 30.1598 29.0837 29.9166V29H30.0003C30.2434 29 30.4766 28.9034 30.6485 28.7315C30.8204 28.5596 30.917 28.3264 30.917 28.0833C30.917 27.8402 30.8204 27.607 30.6485 27.4351C30.4766 27.2632 30.2434 27.1666 30.0003 27.1666H29.0837V26.25C29.0837 26.0069 28.9871 25.7737 28.8152 25.6018C28.6433 25.4299 28.4101 25.3333 28.167 25.3333C27.9239 25.3333 27.6907 25.4299 27.5188 25.6018C27.3469 25.7737 27.2503 26.0069 27.2503 26.25V27.1666H26.3337C26.0905 27.1666 25.8574 27.2632 25.6855 27.4351C25.5136 27.607 25.417 27.8402 25.417 28.0833C25.417 28.3264 25.5136 28.5596 25.6855 28.7315C25.8574 28.9034 26.0905 29 26.3337 29Z" fill="black"/>
<path d="M54.7507 34.5C54.5075 34.5 54.2744 34.5965 54.1025 34.7684C53.9306 34.9404 53.834 35.1735 53.834 35.4166C53.834 35.6597 53.9306 35.8929 54.1025 36.0648C54.2744 36.2367 54.5075 36.3333 54.7507 36.3333H55.6673V37.25C55.6673 37.4931 55.7639 37.7262 55.9358 37.8981C56.1077 38.07 56.3409 38.1666 56.584 38.1666C56.8271 38.1666 57.0603 38.07 57.2322 37.8981C57.4041 37.7262 57.5007 37.4931 57.5007 37.25V36.3333H58.4173C58.6604 36.3333 58.8936 36.2367 59.0655 36.0648C59.2374 35.8929 59.334 35.6597 59.334 35.4166C59.334 35.1735 59.2374 34.9404 59.0655 34.7684C58.8936 34.5965 58.6604 34.5 58.4173 34.5H57.5007V33.5833C57.5007 33.3402 57.4041 33.107 57.2322 32.9351C57.0603 32.7632 56.8271 32.6666 56.584 32.6666C56.3409 32.6666 56.1077 32.7632 55.9358 32.9351C55.7639 33.107 55.6673 33.3402 55.6673 33.5833V34.5H54.7507Z" fill="black"/>
<path d="M53.8337 28.0833C54.3399 28.0833 54.7503 27.6729 54.7503 27.1667C54.7503 26.6604 54.3399 26.25 53.8337 26.25C53.3274 26.25 52.917 26.6604 52.917 27.1667C52.917 27.6729 53.3274 28.0833 53.8337 28.0833Z" fill="black"/>
<path d="M23.5837 36.3333C24.0899 36.3333 24.5003 35.9229 24.5003 35.4167C24.5003 34.9104 24.0899 34.5 23.5837 34.5C23.0774 34.5 22.667 34.9104 22.667 35.4167C22.667 35.9229 23.0774 36.3333 23.5837 36.3333Z" fill="black"/>
</svg>
