<svg width="81" height="80" viewBox="0 0 81 80" fill="none" xmlns="http://www.w3.org/2000/svg">
<path d="M80.75 40C80.75 62.0914 62.8414 80 40.75 80C18.6586 80 0.75 62.0914 0.75 40C0.75 17.9086 18.6586 0 40.75 0C62.8414 0 80.75 17.9086 80.75 40Z" fill="white"/>
<path d="M33.0027 32.0539C34.0872 32.0539 34.9663 31.1747 34.9663 30.0902C34.9663 29.0057 34.0872 28.1266 33.0027 28.1266C31.9182 28.1266 31.0391 29.0057 31.0391 30.0902C31.0391 31.1747 31.9182 32.0539 33.0027 32.0539Z" stroke="black" stroke-width="1.45455" stroke-miterlimit="10" stroke-linecap="round" stroke-linejoin="round"/>
<path d="M26.7478 32.054C27.8323 32.054 28.7115 31.1748 28.7115 30.0903C28.7115 29.0059 27.8323 28.1267 26.7478 28.1267C25.6633 28.1267 24.7842 29.0059 24.7842 30.0903C24.7842 31.1748 25.6633 32.054 26.7478 32.054Z" stroke="black" stroke-width="1.45455" stroke-miterlimit="10" stroke-linecap="round" stroke-linejoin="round"/>
<path d="M38.9656 32.0539C40.0501 32.0539 40.9292 31.1747 40.9292 30.0902C40.9292 29.0057 40.0501 28.1266 38.9656 28.1266C37.8811 28.1266 37.002 29.0057 37.002 30.0902C37.002 31.1747 37.8811 32.0539 38.9656 32.0539Z" stroke="black" stroke-width="1.45455" stroke-miterlimit="10" stroke-linecap="round" stroke-linejoin="round"/>
<path d="M39.9102 58.8902C40.3466 59.3993 40.783 59.9084 41.2921 60.4175C46.1648 64.8538 53.6557 64.5629 58.0921 59.6902C62.5284 54.8175 62.2375 47.2538 57.3648 42.8175C52.4921 38.3811 45.0012 38.672 40.5648 43.5447C38.1648 46.1629 37.1466 49.6538 37.5102 52.9266" stroke="black" stroke-width="1.45455" stroke-miterlimit="10" stroke-linecap="round" stroke-linejoin="round"/>
<path d="M37.511 52.9265L32.8564 54.8174C35.0383 56.6355 37.3655 58.0174 39.911 58.8901" stroke="black" stroke-width="1.45455" stroke-miterlimit="10" stroke-linecap="round" stroke-linejoin="round"/>
<path d="M24.4209 39.0357C23.9118 38.5994 23.4754 38.0903 23.0391 37.5085C19.1118 32.1994 20.2027 24.7085 25.5118 20.7812C30.8209 16.8539 38.3118 18.0176 42.2391 23.2539C46.1663 28.4903 45.0754 35.9812 39.7663 39.9812C36.93 42.0903 33.3663 42.7448 30.1663 42.0903" stroke="black" stroke-width="1.45455" stroke-miterlimit="10" stroke-linecap="round" stroke-linejoin="round"/>
<path d="M30.0946 42.0177L27.7673 46.4541C26.2401 44.1268 25.0764 41.6541 24.4219 38.9632" stroke="black" stroke-width="1.45455" stroke-miterlimit="10" stroke-linecap="round" stroke-linejoin="round"/>
<path d="M50.9662 59.2548C51.3298 58.8912 51.6207 58.4548 51.9116 58.0184C54.5298 53.9457 53.3662 48.4912 49.2207 45.873" stroke="black" stroke-width="1.45455" stroke-miterlimit="10" stroke-linecap="round" stroke-linejoin="round"/>
<path d="M50.9651 59.2547C52.5651 55.4002 51.1832 50.8911 47.5469 48.5638" stroke="black" stroke-width="1.45455" stroke-miterlimit="10" stroke-linecap="round" stroke-linejoin="round"/>
<path d="M49.2201 45.873L50.5292 43.9821L45.002 45.1457L46.2383 50.673L47.5474 48.5639" stroke="black" stroke-width="1.45455" stroke-miterlimit="10" stroke-linecap="round" stroke-linejoin="round"/>
</svg>
