<svg width="80" height="80" viewBox="0 0 80 80" fill="none" xmlns="http://www.w3.org/2000/svg">
<circle cx="40" cy="40" r="40" fill="white"/>
<g clip-path="url(#clip0_2019_1713)">
<path d="M27.25 22H28.75V23.5H27.25V22Z" fill="black"/>
<path d="M51.25 34.75H52.75V36.25H51.25V34.75Z" fill="black"/>
<path d="M55.75 22H57.25V23.5H55.75V22Z" fill="black"/>
<path d="M16 36.7844H17.5V38.2844H16V36.7844Z" fill="black"/>
<path d="M37.75 62.5H39.25V64H37.75V62.5Z" fill="black"/>
<path d="M32.875 57.25C31.4313 57.25 30.25 58.4313 30.25 59.875C30.25 61.3187 31.4313 62.5 32.875 62.5C34.3187 62.5 35.5 61.3187 35.5 59.875C35.5 58.4313 34.3187 57.25 32.875 57.25ZM32.875 61C32.2562 61 31.75 60.4938 31.75 59.875C31.75 59.2562 32.2562 58.75 32.875 58.75C33.4938 58.75 34 59.2562 34 59.875C34 60.4938 33.4938 61 32.875 61Z" fill="black"/>
<path d="M20.875 25.75C22.3187 25.75 23.5 24.5687 23.5 23.125C23.5 21.6813 22.3187 20.5 20.875 20.5C19.4313 20.5 18.25 21.6813 18.25 23.125C18.25 24.5687 19.4313 25.75 20.875 25.75ZM20.875 22C21.4938 22 22 22.5062 22 23.125C22 23.7438 21.4938 24.25 20.875 24.25C20.2562 24.25 19.75 23.7438 19.75 23.125C19.75 22.5062 20.2562 22 20.875 22Z" fill="black"/>
<path d="M36.6437 24.1562L38.875 25.375L40.0938 27.6063C40.225 27.85 40.4781 28 40.75 28C41.0219 28 41.275 27.85 41.4062 27.6063L42.625 25.375L44.8562 24.1562C45.1 24.025 45.25 23.7719 45.25 23.5C45.25 23.2281 45.1 22.975 44.8562 22.8438L42.625 21.625L41.4062 19.3937C41.275 19.15 41.0219 19 40.75 19C40.4781 19 40.225 19.15 40.0938 19.3937L38.875 21.625L36.6437 22.8438C36.4 22.975 36.25 23.2281 36.25 23.5C36.25 23.7719 36.4 24.025 36.6437 24.1562ZM39.7844 22.8344C39.9062 22.7688 40.0094 22.6656 40.0844 22.5344L40.75 21.3156L41.4156 22.5344C41.4813 22.6562 41.5844 22.7594 41.7156 22.8344L42.9344 23.5L41.7156 24.1656C41.5937 24.2312 41.4906 24.3344 41.4156 24.4656L40.75 25.6844L40.0844 24.4656C40.0187 24.3438 39.9156 24.2406 39.7844 24.1656L38.5656 23.5L39.7844 22.8344Z" fill="black"/>
<path d="M52.3562 61.8438L50.125 60.625L48.9062 58.3938C48.775 58.15 48.5219 58 48.25 58C47.9781 58 47.725 58.15 47.5938 58.3938L46.375 60.625L44.1438 61.8438C43.9 61.975 43.75 62.2281 43.75 62.5C43.75 62.7719 43.9 63.025 44.1438 63.1562L46.375 64.375L47.5938 66.6062C47.725 66.85 47.9781 67 48.25 67C48.5219 67 48.775 66.85 48.9062 66.6062L50.125 64.375L52.3562 63.1562C52.6 63.025 52.75 62.7719 52.75 62.5C52.75 62.2281 52.6 61.975 52.3562 61.8438ZM49.2156 63.1656C49.0937 63.2313 48.9906 63.3344 48.9156 63.4656L48.25 64.6844L47.5844 63.4656C47.5187 63.3437 47.4156 63.2406 47.2844 63.1656L46.0656 62.5L47.2844 61.8344C47.4063 61.7687 47.5094 61.6656 47.5844 61.5344L48.25 60.3156L48.9156 61.5344C48.9813 61.6563 49.0844 61.7594 49.2156 61.8344L50.4344 62.5L49.2156 63.1656Z" fill="black"/>
<path d="M63.9156 46.4125L58.75 36.0719V28C58.75 27.7563 58.6375 27.5313 58.4406 27.3906C58.2438 27.25 57.9906 27.2125 57.7656 27.2875L56.5 27.7094V26.5C56.5 26.125 56.2281 25.8156 55.8625 25.7594C53.7906 25.45 51.6906 25.45 49.6375 25.7594C46.4687 26.2375 43.3937 27.4844 40.7031 29.3594C38.4156 28.0844 35.9688 27.1281 33.4188 26.5187C30.2594 25.7594 26.0219 25.6844 24.2219 25.75C23.8187 25.7688 23.5 26.0969 23.5 26.5V27.7094L22.2344 27.2875C22.0094 27.2125 21.7562 27.25 21.5594 27.3906C21.3625 27.5313 21.25 27.7563 21.25 28V36.0719L16.0375 46.4125C15.9812 46.5156 15.9531 46.6281 15.9531 46.75V67H17.4531V47.1062L26.3406 39.775C26.5469 40.75 26.5938 42.3625 25.4031 43.9938L21.4375 47.7063C21.2875 47.8469 21.2031 48.0438 21.2031 48.25V50.5C21.2031 50.9125 21.5406 51.25 21.9531 51.25C21.9625 51.25 22.9375 51.2781 23.6594 52.1594C24.55 53.2469 24.7469 55.2156 24.2219 57.85L25.6938 58.1406C25.9281 56.95 26.0406 55.8719 26.0125 54.9156C26.4531 54.8875 26.8844 54.8781 27.3156 54.8781C27.3438 56.5188 27.0906 60.7469 23.9781 61.7875C23.6687 61.8906 23.4625 62.1719 23.4625 62.5V67H24.9625V63.0156C26.7906 62.2 28.0188 60.4469 28.5438 57.9156C28.7875 56.7531 28.825 55.675 28.8156 54.9531C32.725 55.2719 35.9031 56.6781 37.6562 57.6344C37.7219 57.6719 37.7594 57.7281 37.7594 57.8031V58.75C37.7594 59.1625 38.0969 59.5 38.5094 59.5H43.0094C43.4219 59.5 43.7594 59.1625 43.7594 58.75V57.6906C43.7594 57.6344 43.7875 57.5781 43.825 57.5406C46.3094 55.5625 49.0656 54.925 51.1656 54.775C51.1281 56.7156 51.4281 61.4219 55 63.0156V67H56.5V62.5C56.5 62.1813 56.2938 61.8906 55.9844 61.7875C52.8625 60.7469 52.6281 56.4063 52.6656 54.7375C53.1906 54.7563 53.6219 54.7938 53.95 54.8313C53.9125 55.8063 54.0156 56.9125 54.2594 58.1406L55.7312 57.85C55.2062 55.2344 55.3937 53.275 56.275 52.1781C56.9969 51.2781 57.9625 51.25 58 51.2406C58.4125 51.2406 58.75 50.9031 58.75 50.4906V48.2406C58.75 48.0344 58.6656 47.8375 58.5156 47.6969L54.5594 43.9938C53.3594 42.3625 53.4156 40.75 53.6219 39.775L62.5094 47.1062V67H64.0094V46.75C64 46.6281 63.9719 46.5156 63.9156 46.4125ZM61 43.9187L58.75 42.0625V39.4188L61 43.9187ZM57.25 29.0406V40.8344L56.5 40.2156V29.2938L57.25 29.0406ZM23.5 29.2938V40.1781L22.75 40.7969V29.0406L23.5 29.2938ZM21.25 42.0344L18.9812 43.9094L21.25 39.4094V42.0344ZM26.4719 45.0437C26.5 45.0156 26.5375 44.9781 26.5562 44.95C29.0594 41.6219 27.4469 38.3031 27.3813 38.1625C27.2781 37.9562 27.0906 37.8156 26.8656 37.7687C26.6406 37.7219 26.4062 37.7781 26.2375 37.9281L25 38.9406V27.2313C26.9781 27.2125 30.4375 27.3438 33.0719 27.9813C35.4906 28.5625 37.825 29.4719 40 30.6906V53.7344C37.9188 52.6469 35.7156 51.8219 33.4281 51.2781C30.6625 50.6125 27.0625 50.4719 25 50.4906V46.4313L26.4719 45.0437ZM22.7031 48.5781L23.5 47.8375V50.1625C23.2094 50.0219 22.9375 49.9281 22.7031 49.8625V48.5781ZM42.8875 56.3688C42.4844 56.6875 42.25 57.175 42.25 57.6906V58H39.25V57.7937C39.25 57.175 38.9125 56.6031 38.3688 56.3125C36.0531 55.0562 31.4313 53.0687 25.8344 53.4344C25.7219 52.9 25.5531 52.4219 25.3281 51.9906C27.3438 51.9906 30.5781 52.1406 33.0719 52.7406C35.6313 53.35 38.0875 54.3344 40.375 55.6562C40.4875 55.7219 40.6187 55.7594 40.75 55.7594C40.8813 55.7594 41.0125 55.7219 41.125 55.6562C41.1531 55.6469 41.1719 55.6281 41.1906 55.6094C43.7781 53.7156 46.7688 52.4688 49.8625 52C51.4563 51.7563 53.0688 51.7188 54.6813 51.8781C54.4375 52.3094 54.2594 52.8062 54.1375 53.35C52.2437 53.0969 47.2562 52.8813 42.8875 56.3688ZM57.25 49.8625C57.025 49.9188 56.7719 50.0031 56.5 50.1344V47.875L57.25 48.5781V49.8625ZM53.0875 37.7687C52.8625 37.8156 52.675 37.9656 52.5719 38.1625C52.5063 38.3031 50.8937 41.6125 53.3969 44.95C53.425 44.9875 53.4531 45.0156 53.4812 45.0437L55 46.4688V50.3969C53.2094 50.2 51.4094 50.2375 49.6375 50.5094C46.7781 50.9406 43.9937 52 41.5 53.5844V30.6344C44.0125 28.8625 46.9 27.6906 49.8625 27.2406C51.5594 26.9875 53.2844 26.9594 55 27.1563V38.9781L53.7156 37.9188C53.5375 37.7781 53.3031 37.7219 53.0875 37.7687Z" fill="black"/>
<path d="M37.3752 35.3969L38.1158 34.0937C32.7064 31 27.3627 31.7219 27.1377 31.75L27.3533 33.2312C27.4096 33.2312 32.4064 32.5656 37.3752 35.3969Z" fill="black"/>
<path d="M37.3752 39.1469L38.1158 37.8437C32.7064 34.75 27.3627 35.4719 27.1377 35.5L27.3533 36.9812C27.4096 36.9812 32.4064 36.3156 37.3752 39.1469Z" fill="black"/>
<path d="M42.625 49.1031L43.3656 50.4062C48.3156 47.575 53.3406 48.2406 53.3875 48.25L53.6031 46.7687C53.3781 46.7219 48.0344 46.0094 42.625 49.1031Z" fill="black"/>
<path d="M42.625 33.4281L43.3656 34.7312C48.3156 31.9 53.3406 32.5656 53.3875 32.575L53.6031 31.0937C53.3781 31.0562 48.0344 30.3437 42.625 33.4281Z" fill="black"/>
</g>
<defs>
<clipPath id="clip0_2019_1713">
<rect width="48" height="48" fill="white" transform="translate(16 19)"/>
</clipPath>
</defs>
</svg>
