<svg width="201" height="201" viewBox="0 0 201 201" fill="none" xmlns="http://www.w3.org/2000/svg">
<path d="M22.9001 73.4159L21.5599 78.8203L36.3519 82.4883L35.7945 84.7362L21.0025 81.0682L19.6595 86.4841L17.761 86.0134L21.0016 72.9452L22.9001 73.4159Z" fill="white" fill-opacity="0.7"/>
<path d="M35.113 62.6888C35.452 62.1085 35.6815 61.557 35.8016 61.0342C35.9188 60.5005 35.9363 60.0104 35.8543 59.5641C35.7693 59.1068 35.5916 58.6973 35.3212 58.3355C35.0507 57.9737 34.6979 57.6657 34.2627 57.4115C33.3785 56.895 32.5425 56.7957 31.7545 57.1137C30.9665 57.4317 30.2336 58.1709 29.5557 59.3314L28.2726 61.5281L33.8783 64.8026L35.113 62.6888ZM46.7772 60.3022L45.7361 62.0844C45.5223 62.4505 45.2233 62.6372 44.8392 62.6445L37.2824 63.4001C37.048 63.4207 36.8559 63.4799 36.7061 63.5777C36.5535 63.6646 36.3944 63.8496 36.229 64.1328L35.3393 65.656L41.5356 69.2755L40.3674 71.2753L25.5191 62.6019L27.9704 58.4054C28.5191 57.4659 29.09 56.7107 29.6829 56.1398C30.2689 55.5649 30.8706 55.1613 31.488 54.929C32.1095 54.6898 32.7384 54.6125 33.3747 54.6969C34.004 54.7774 34.633 55.0012 35.2616 55.3684C35.7866 55.675 36.2286 56.0444 36.5877 56.4765C36.9468 56.9086 37.2166 57.3905 37.3971 57.9221C37.5747 58.4428 37.6582 59.0057 37.6474 59.6109C37.6407 60.2092 37.5356 60.8334 37.3319 61.4834C37.6263 61.3126 37.9661 61.2146 38.3513 61.1895L46.7772 60.3022Z" fill="white" fill-opacity="0.7"/>
<path d="M53.0694 44.732L46.3038 41.4976C46.1029 41.4013 45.8771 41.2844 45.6264 41.147C45.3702 41.0038 45.1059 40.8462 44.8336 40.6742C45.1562 41.2607 45.4018 41.7715 45.5703 42.2065L48.4006 49.1387L53.0694 44.732ZM60.977 46.0469L59.668 47.2824C59.5167 47.4252 59.3588 47.5027 59.1944 47.5149C59.0299 47.5272 58.8695 47.4971 58.7131 47.4246L54.6938 45.5089L49.0825 50.8052L50.7631 54.9284C50.827 55.066 50.848 55.2223 50.8259 55.3971C50.8039 55.5719 50.7202 55.7279 50.5747 55.8652L49.2657 57.1007L42.4628 39.8757L44.1732 38.2613L60.977 46.0469Z" fill="white" fill-opacity="0.7"/>
<path d="M69.0892 22.252L76.8913 37.5762L75.854 38.1043C75.69 38.1878 75.5365 38.2301 75.3934 38.2311C75.2574 38.2285 75.1015 38.1867 74.9256 38.1057L60.1803 31.07C60.2853 31.241 60.3849 31.4102 60.4792 31.5776C60.5734 31.7451 60.6586 31.9037 60.7349 32.0534L66.2938 42.9718L64.4758 43.8973L56.6738 28.5732L57.7431 28.0287C57.8358 27.9815 57.9179 27.9487 57.9893 27.9303C58.0571 27.9048 58.1232 27.8936 58.1876 27.8967C58.2484 27.8927 58.3165 27.9029 58.3918 27.9274C58.4635 27.9448 58.546 27.9746 58.6393 28.0168L73.3791 35.0419C73.2705 34.8638 73.1655 34.6928 73.0641 34.529C72.9662 34.3544 72.8774 34.1886 72.7975 34.0318L67.2713 23.1776L69.0892 22.252Z" fill="white" fill-opacity="0.7"/>
<path d="M90.0448 19.7026C89.9962 19.8338 89.9345 19.9389 89.8598 20.0181C89.7915 20.0878 89.6983 20.1338 89.5804 20.1559C89.4467 20.181 89.2769 20.1436 89.071 20.0438C88.8651 19.9441 88.6098 19.8414 88.3051 19.7357C88.0068 19.6207 87.6525 19.5325 87.2422 19.471C86.8397 19.4081 86.3672 19.4275 85.8246 19.5292C85.3135 19.6251 84.8747 19.7806 84.508 19.9958C84.1478 20.2017 83.8561 20.4477 83.633 20.7337C83.4178 21.0182 83.2735 21.3342 83.2003 21.6817C83.1256 22.0213 83.1229 22.3758 83.1922 22.7454C83.2806 23.2172 83.4683 23.5889 83.7553 23.8607C84.0487 24.1231 84.4048 24.3291 84.8235 24.4785C85.25 24.6264 85.7186 24.738 86.2292 24.8132C86.7462 24.879 87.2725 24.9513 87.8082 25.0299C88.3517 25.1071 88.8839 25.2108 89.4049 25.341C89.9322 25.4619 90.4155 25.6521 90.8548 25.9116C91.302 26.1696 91.6846 26.5171 92.0026 26.954C92.3284 27.3894 92.5569 27.957 92.6881 28.6568C92.8266 29.3959 92.8313 30.1154 92.702 30.8152C92.5713 31.5071 92.3071 32.1386 91.9096 32.7097C91.5198 33.2792 90.9969 33.768 90.3409 34.1758C89.6927 34.5822 88.9204 34.8695 88.024 35.0375C86.9232 35.2439 85.8877 35.2346 84.9176 35.0095C83.946 34.7765 83.0784 34.3816 82.3147 33.8248L82.7718 32.6159C82.8185 32.5176 82.8799 32.4328 82.9561 32.3616C83.0387 32.281 83.135 32.2304 83.2451 32.2097C83.3473 32.1906 83.4694 32.2124 83.6114 32.2753C83.7598 32.3289 83.9284 32.4031 84.1171 32.498C84.3058 32.5928 84.5203 32.695 84.7606 32.8046C85.0009 32.9142 85.2666 33.0069 85.5575 33.0826C85.8563 33.1568 86.1868 33.2047 86.549 33.2263C86.9097 33.2401 87.3063 33.2064 87.7387 33.1253C88.2813 33.0236 88.7508 32.8583 89.1474 32.6293C89.544 32.4003 89.8627 32.1248 90.1035 31.8029C90.3507 31.4717 90.5176 31.1027 90.6041 30.6957C90.6906 30.2888 90.6904 29.8534 90.6034 29.3895C90.5076 28.8784 90.3115 28.4838 90.0152 28.2056C89.7252 27.9181 89.3709 27.6997 88.9522 27.5503C88.5335 27.4009 88.0664 27.2972 87.5509 27.2392C87.0339 27.1733 86.509 27.1089 85.9763 27.046C85.4421 26.9752 84.9114 26.8794 84.3841 26.7585C83.8568 26.6376 83.3727 26.4435 82.9319 26.1761C82.4911 25.9088 82.1055 25.5456 81.7753 25.0866C81.4515 24.6182 81.2195 24.0106 81.0795 23.2636C80.9674 22.666 80.9731 22.0667 81.0965 21.4656C81.2277 20.8632 81.4729 20.3044 81.8322 19.7894C82.1993 19.2729 82.6809 18.8245 83.277 18.4441C83.881 18.0623 84.6037 17.7925 85.445 17.6347C86.3886 17.4578 87.2737 17.4466 88.1002 17.6009C88.9347 17.7537 89.6999 18.058 90.3957 18.5135L90.0448 19.7026Z" fill="white" fill-opacity="0.7"/>
<path d="M106.551 18.5315L105.95 24.5133L112.982 25.2208L112.792 27.1073L105.76 26.3997L105.02 33.7546L102.704 33.5216L104.425 16.4119L114.968 17.4726L114.778 19.3591L106.551 18.5315Z" fill="white" fill-opacity="0.7"/>
<path d="M136.765 33.7757C136.28 34.969 135.646 35.9891 134.861 36.8362C134.08 37.6758 133.198 38.3151 132.217 38.754C131.236 39.1929 130.178 39.4153 129.045 39.4211C127.922 39.4225 126.775 39.1853 125.604 38.7096C124.432 38.2339 123.445 37.6039 122.641 36.8196C121.84 36.028 121.241 35.1327 120.844 34.1337C120.447 33.1348 120.261 32.0619 120.286 30.9152C120.315 29.761 120.571 28.5873 121.056 27.394C121.541 26.2007 122.174 25.1843 122.955 24.3447C123.74 23.4976 124.623 22.8546 125.604 22.4157C126.588 21.9694 127.644 21.7418 128.77 21.733C129.896 21.7242 131.044 21.9576 132.216 22.4334C133.387 22.9091 134.373 23.5428 135.174 24.3344C135.982 25.1291 136.583 26.0296 136.977 27.036C137.375 28.0349 137.559 29.1115 137.531 30.2656C137.505 31.4124 137.25 32.5824 136.765 33.7757ZM134.553 32.8769C134.95 31.8986 135.174 30.9661 135.223 30.0794C135.272 29.1928 135.161 28.3833 134.888 27.6509C134.619 26.9112 134.195 26.2552 133.615 25.6831C133.036 25.1111 132.317 24.6504 131.457 24.3011C130.604 23.9549 129.771 23.7848 128.957 23.7908C128.143 23.7968 127.378 23.9695 126.661 24.3088C125.955 24.6437 125.311 25.1461 124.728 25.816C124.145 26.4858 123.655 27.3099 123.257 28.2883C122.86 29.2666 122.636 30.1991 122.587 31.0857C122.541 31.965 122.652 32.7745 122.922 33.5142C123.202 34.2496 123.631 34.9034 124.21 35.4754C124.793 36.0401 125.51 36.4956 126.362 36.8418C127.222 37.1911 128.058 37.3664 128.869 37.3678C129.683 37.3618 130.443 37.1913 131.149 36.8564C131.858 36.514 132.502 36.0116 133.082 35.3492C133.665 34.6794 134.155 33.8553 134.553 32.8769Z" fill="white" fill-opacity="0.7"/>
<path d="M147.135 40.8201C147.661 41.2382 148.174 41.5439 148.674 41.7372C149.186 41.9291 149.669 42.0163 150.122 41.9985C150.587 41.9795 151.017 41.8619 151.414 41.6457C151.811 41.4295 152.166 41.1242 152.479 40.7296C153.116 39.9279 153.334 39.1144 153.131 38.2892C152.928 37.4641 152.301 36.6334 151.249 35.7972L149.257 34.2145L145.218 39.2972L147.135 40.8201ZM147.837 52.7052L146.221 51.4211C145.889 51.1574 145.747 50.8349 145.794 50.4536L146.122 42.8662C146.135 42.6313 146.104 42.4327 146.028 42.2706C145.964 42.1071 145.803 41.9233 145.546 41.7193L144.165 40.6218L139.701 46.24L137.888 44.7991L148.586 31.3362L152.391 34.3598C153.243 35.0367 153.909 35.7092 154.39 36.3773C154.875 37.0391 155.189 37.6922 155.331 38.3364C155.48 38.9856 155.467 39.6191 155.293 40.2369C155.123 40.8484 154.812 41.4391 154.359 42.009C153.981 42.4851 153.553 42.87 153.074 43.1639C152.595 43.4579 152.08 43.6563 151.528 43.7593C150.987 43.8611 150.418 43.8636 149.82 43.7668C149.229 43.675 148.626 43.4821 148.012 43.188C148.139 43.5037 148.188 43.854 148.158 44.2389L147.837 52.7052Z" fill="white" fill-opacity="0.7"/>
<path d="M174.495 59.6116L160.438 69.5151L159.263 67.8474L169.593 60.5701C169.73 60.4733 169.879 60.3729 170.041 60.2689C170.207 60.1714 170.377 60.0716 170.549 59.9695L158.359 61.3352C157.959 61.3921 157.651 61.2669 157.434 60.9595L157.241 60.6848C157.024 60.3774 157.01 60.0449 157.198 59.6871L162.558 48.5425C162.239 48.826 161.932 49.0713 161.638 49.2787L151.308 56.556L150.133 54.8883L164.191 44.9848L165.179 46.3876C165.299 46.5576 165.375 46.7 165.407 46.8146C165.438 46.9292 165.409 47.082 165.319 47.2729L160.087 58.2245C159.985 58.4135 159.875 58.6039 159.756 58.7956C159.641 58.9939 159.518 59.1879 159.388 59.3777C159.61 59.3188 159.832 59.2653 160.053 59.2175C160.28 59.165 160.502 59.126 160.719 59.1005L172.72 57.7795C172.926 57.7521 173.077 57.7726 173.175 57.8411C173.276 57.9162 173.387 58.0387 173.507 58.2088L174.495 59.6116Z" fill="white" fill-opacity="0.7"/>
<path d="M170.878 80.1322L176.631 75.3216C176.802 75.1789 177.002 75.022 177.231 74.8511C177.468 74.6775 177.721 74.5026 177.991 74.3263C177.323 74.3761 176.756 74.3873 176.291 74.3599L168.809 74.0547L170.878 80.1322ZM166.397 86.7789L165.817 85.075C165.75 84.8781 165.745 84.7023 165.802 84.5476C165.86 84.3929 165.954 84.2595 166.084 84.1473L169.497 81.2871L167.01 73.9827L162.561 73.7986C162.41 73.7995 162.259 73.7537 162.109 73.6611C161.959 73.5684 161.852 73.4274 161.787 73.2381L161.207 71.5341L179.702 72.5015L180.46 74.728L166.397 86.7789Z" fill="white" fill-opacity="0.7"/>
<path d="M182.708 103.897L182.471 98.334L167.245 98.9819L167.147 96.668L182.373 96.0201L182.136 90.4451L184.09 90.362L184.662 103.814L182.708 103.897Z" fill="white" fill-opacity="0.7"/>
<path d="M164.938 117.712L165.498 115.452L182.189 119.591L181.628 121.851L164.938 117.712Z" fill="white" fill-opacity="0.7"/>
<path d="M161.287 145.552C160.175 144.902 159.255 144.129 158.529 143.232C157.809 142.339 157.301 141.376 157.007 140.342C156.712 139.308 156.642 138.23 156.798 137.107C156.956 135.995 157.354 134.893 157.992 133.802C158.629 132.71 159.393 131.823 160.284 131.138C161.182 130.458 162.153 129.993 163.198 129.742C164.244 129.491 165.332 129.459 166.464 129.648C167.602 129.84 168.727 130.261 169.839 130.911C170.951 131.561 171.867 132.332 172.587 133.225C173.314 134.122 173.825 135.087 174.12 136.121C174.421 137.159 174.496 138.236 174.345 139.352C174.193 140.468 173.799 141.571 173.161 142.663C172.524 143.754 171.756 144.64 170.859 145.32C169.957 146.007 168.98 146.474 167.928 146.721C166.883 146.972 165.791 147.002 164.652 146.809C163.521 146.621 162.399 146.202 161.287 145.552ZM162.491 143.49C163.403 144.023 164.294 144.377 165.165 144.552C166.036 144.727 166.853 144.731 167.616 144.566C168.387 144.405 169.097 144.078 169.745 143.586C170.394 143.094 170.952 142.447 171.421 141.646C171.885 140.852 172.172 140.051 172.281 139.244C172.391 138.438 172.329 137.656 172.095 136.898C171.864 136.152 171.459 135.442 170.879 134.77C170.299 134.098 169.553 133.495 168.641 132.963C167.729 132.43 166.838 132.076 165.967 131.901C165.104 131.73 164.286 131.725 163.516 131.887C162.748 132.059 162.04 132.391 161.391 132.883C160.749 133.379 160.197 134.024 159.732 134.819C159.264 135.62 158.972 136.422 158.855 137.225C158.745 138.031 158.806 138.808 159.037 139.554C159.275 140.305 159.68 141.014 160.254 141.683C160.834 142.355 161.58 142.957 162.491 143.49Z" fill="white" fill-opacity="0.7"/>
<path d="M152.816 166.286L141.013 153.78L141.86 152.981C141.993 152.855 142.129 152.771 142.266 152.73C142.397 152.694 142.558 152.69 142.75 152.718L158.88 155.315C158.731 155.18 158.588 155.046 158.45 154.912C158.313 154.778 158.186 154.65 158.071 154.528L149.661 145.618L151.145 144.217L162.948 156.723L162.075 157.546C162 157.618 161.93 157.672 161.867 157.71C161.809 157.754 161.749 157.783 161.686 157.798C161.629 157.819 161.561 157.829 161.482 157.826C161.408 157.83 161.32 157.824 161.219 157.81L145.097 155.222C145.251 155.363 145.4 155.497 145.544 155.626C145.687 155.766 145.819 155.9 145.94 156.028L154.3 164.885L152.816 166.286Z" fill="white" fill-opacity="0.7"/>
<path d="M110.619 172.255C110.442 171.312 110.402 170.444 110.498 169.653C110.586 168.864 110.809 168.166 111.168 167.562C111.52 166.967 112.001 166.47 112.61 166.071C113.219 165.672 113.952 165.392 114.809 165.231C115.587 165.085 116.402 165.046 117.253 165.115C117.28 165.346 117.302 165.574 117.32 165.798C117.339 166.031 117.362 166.258 117.387 166.481C117.397 166.618 117.369 166.733 117.305 166.826C117.235 166.929 117.113 166.997 116.94 167.029C116.799 167.056 116.608 167.055 116.366 167.027C116.117 167 115.796 167.024 115.403 167.098C114.884 167.195 114.435 167.361 114.055 167.594C113.676 167.828 113.38 168.136 113.166 168.518C112.953 168.9 112.823 169.36 112.778 169.897C112.726 170.444 112.766 171.072 112.899 171.779L114.982 182.89L112.693 183.319L110.619 172.255Z" fill="white" fill-opacity="0.7"/>
<path d="M84.635 174.295C84.7639 173.014 85.0854 171.856 85.5995 170.822C86.1127 169.797 86.7783 168.935 87.5963 168.237C88.4142 167.54 89.3662 167.028 90.4522 166.703C91.5294 166.386 92.6968 166.29 93.9545 166.417C95.2121 166.543 96.3371 166.869 97.3294 167.395C98.321 167.929 99.148 168.62 99.8106 169.466C100.473 170.313 100.954 171.29 101.252 172.397C101.55 173.513 101.635 174.711 101.506 175.993C101.377 177.274 101.056 178.428 100.543 179.454C100.028 180.487 99.3625 181.353 98.5445 182.051C97.7258 182.756 96.7774 183.272 95.6994 183.598C94.6213 183.923 93.4535 184.023 92.1959 183.896C90.9382 183.77 89.8136 183.44 88.8221 182.906C87.8226 182.371 86.992 181.676 86.3302 180.822C85.6676 179.975 85.1874 178.994 84.8895 177.879C84.5909 176.771 84.506 175.577 84.635 174.295ZM87.011 174.534C86.9053 175.585 86.9536 176.543 87.1561 177.407C87.3586 178.272 87.6937 179.017 88.1613 179.643C88.6282 180.277 89.2202 180.787 89.9372 181.173C90.6542 181.558 91.4743 181.798 92.3977 181.891C93.313 181.983 94.1605 181.911 94.9399 181.676C95.7194 181.441 96.405 181.06 96.9967 180.532C97.5798 180.012 98.0566 179.348 98.4272 178.541C98.7979 177.734 99.036 176.806 99.1417 175.755C99.2474 174.704 99.1991 173.746 98.9966 172.882C98.7933 172.025 98.4583 171.28 97.9914 170.646C97.5157 170.019 96.9194 169.513 96.2024 169.127C95.4846 168.75 94.668 168.515 93.7527 168.423C92.8293 168.33 91.9783 168.397 91.1997 168.624C90.4202 168.859 89.739 169.237 89.156 169.757C88.5722 170.285 88.0953 170.949 87.7255 171.748C87.3549 172.555 87.1167 173.484 87.011 174.534Z" fill="white" fill-opacity="0.7"/>
<path d="M74.8143 163.739C74.1546 163.471 73.5202 163.343 72.9111 163.354C72.3019 163.366 71.7382 163.499 71.2198 163.755C70.6941 164.008 70.2256 164.375 69.8145 164.855C69.396 165.333 69.0512 165.905 68.7803 166.572L64.8465 176.256L62.7008 175.384L66.6345 165.7C67.0079 164.781 67.5024 163.989 68.118 163.324C68.7262 162.656 69.422 162.144 70.2053 161.789C70.9782 161.438 71.8237 161.259 72.7419 161.252C73.66 161.245 74.6082 161.44 75.5866 161.838C76.565 162.235 77.3807 162.757 78.0339 163.402C78.687 164.047 79.1719 164.766 79.4886 165.56C79.8022 166.361 79.9477 167.214 79.925 168.12C79.8949 169.024 79.6931 169.935 79.3198 170.854L75.386 180.537L73.2403 179.666L77.1696 169.993C77.4405 169.326 77.5963 168.677 77.6368 168.046C77.6699 167.412 77.5899 166.822 77.3967 166.277C77.1961 165.73 76.8831 165.236 76.4576 164.795C76.0217 164.359 75.4739 164.007 74.8143 163.739Z" fill="white" fill-opacity="0.7"/>
<path d="M54.0626 159.756C53.5365 159.338 53.0233 159.032 52.5229 158.839C52.0113 158.647 51.5287 158.56 51.0752 158.577C50.6105 158.596 50.1799 158.714 49.7833 158.93C49.3867 159.146 49.0316 159.452 48.718 159.846C48.081 160.648 47.8637 161.461 48.0663 162.287C48.2689 163.112 48.8963 163.942 49.9486 164.779L51.9403 166.361L55.9792 161.279L54.0626 159.756ZM53.3603 147.871L54.9763 149.155C55.3082 149.419 55.4504 149.741 55.403 150.122L55.0755 157.71C55.0625 157.945 55.0937 158.143 55.1692 158.305C55.2335 158.469 55.394 158.653 55.6508 158.857L57.0319 159.954L61.4963 154.336L63.3095 155.777L52.6113 169.24L48.8063 166.216C47.9545 165.539 47.2883 164.867 46.8076 164.199C46.3219 163.537 46.008 162.884 45.866 162.239C45.7177 161.59 45.7306 160.957 45.9047 160.339C46.0739 159.728 46.3849 159.137 46.8379 158.567C47.2161 158.091 47.6447 157.706 48.1235 157.412C48.6023 157.118 49.1176 156.92 49.6695 156.817C50.2102 156.715 50.7793 156.712 51.3768 156.809C51.9681 156.901 52.5709 157.094 53.1853 157.388C53.0581 157.072 53.0095 156.722 53.0394 156.337L53.3603 147.871Z" fill="white" fill-opacity="0.7"/>
<path d="M27.8413 142.582L41.8991 132.679L42.5695 133.63C42.6754 133.781 42.7391 133.927 42.7605 134.068C42.7773 134.203 42.7581 134.364 42.703 134.549L37.8373 150.146C37.9916 150.017 38.1449 149.895 38.2973 149.778C38.4496 149.661 38.5945 149.554 38.7318 149.457L48.7479 142.401L49.9228 144.068L35.865 153.972L35.1739 152.991C35.114 152.906 35.0698 152.829 35.0414 152.761C35.0065 152.698 34.986 152.634 34.9799 152.57C34.9673 152.51 34.9677 152.441 34.9813 152.363C34.9882 152.29 35.006 152.204 35.0345 152.106L39.8904 136.516C39.7296 136.649 39.5753 136.777 39.4275 136.901C39.2686 137.023 39.1172 137.134 38.9734 137.235L29.0161 144.25L27.8413 142.582Z" fill="white" fill-opacity="0.7"/>
<path d="M33.8235 116.811L35.6222 116.211L39.037 126.242L22.7584 131.784L19.3436 121.753L21.1385 121.142L23.803 128.969L29.2103 127.128L27.0523 120.79L28.779 120.202L30.937 126.54L36.4919 124.649L33.8235 116.811Z" fill="white" fill-opacity="0.7"/>
<path d="M27.1064 101.888L33.9522 101.596L34.0512 103.922L27.2054 104.214L17.1386 110.948L17.0519 108.91C17.043 108.702 17.088 108.536 17.1868 108.411C17.2776 108.287 17.4011 108.178 17.5572 108.083L24.0678 103.867C24.3414 103.711 24.5996 103.568 24.8422 103.437C25.0769 103.307 25.3163 103.193 25.5603 103.095C25.3088 103.017 25.0608 102.928 24.8162 102.826C24.5637 102.725 24.2947 102.612 24.0091 102.488L17.1643 98.8516C17.0254 98.7855 16.8973 98.6909 16.7799 98.5677C16.6626 98.4446 16.5997 98.2831 16.5912 98.0833L16.5039 96.0332L27.1064 101.888Z" fill="white" fill-opacity="0.7"/>
</svg>
