<svg width="49" height="49" viewBox="0 0 49 49" fill="none" xmlns="http://www.w3.org/2000/svg">
<g clip-path="url(#clip0_2012_21)">
<g clip-path="url(#clip1_2012_21)">
<path d="M38.8149 24.5514L32.4515 18.1878C32.2229 17.9209 31.8211 17.8898 31.5542 18.1184C31.2873 18.347 31.2562 18.7488 31.4848 19.0157C31.5061 19.0406 31.5293 19.0638 31.5542 19.0851L36.8295 24.3668H11.6363C11.2849 24.3668 11 24.6517 11 25.0032C11 25.3547 11.2849 25.6395 11.6363 25.6395H36.8295L31.5542 30.9149C31.2873 31.1435 31.2562 31.5452 31.4848 31.8121C31.7135 32.079 32.1151 32.1102 32.3821 31.8815C32.4069 31.8602 32.4302 31.837 32.4515 31.8121L38.815 25.4486C39.0617 25.2005 39.0617 24.7996 38.8149 24.5514Z" fill="white"/>
</g>
<circle cx="24.5" cy="24.5" r="24" stroke="white"/>
</g>
<defs>
<clipPath id="clip0_2012_21">
<rect width="49" height="49" fill="white"/>
</clipPath>
<clipPath id="clip1_2012_21">
<rect width="28" height="28" fill="white" transform="translate(11 11)"/>
</clipPath>
</defs>
</svg>
