<svg width="32" height="32" viewBox="0 0 32 32" fill="none" xmlns="http://www.w3.org/2000/svg">
<g clip-path="url(#clip0_2044_1844)">
<path d="M11.6364 13.091C12.4398 13.091 13.091 12.4398 13.091 11.6364C13.091 10.8331 12.4398 10.1819 11.6364 10.1819C10.8331 10.1819 10.1819 10.8331 10.1819 11.6364C10.1819 12.4398 10.8331 13.091 11.6364 13.091Z" fill="#121212"/>
<path d="M13.0909 13.8181H10.1819V21.8181H13.0909V13.8181Z" fill="#121212"/>
<path d="M16 0C7.16344 0 0 7.16344 0 16C0 24.8366 7.16344 32 16 32C24.8366 32 32 24.8366 32 16C32 7.16344 24.8366 0 16 0ZM16 30.5454C7.96675 30.5454 1.45456 24.0332 1.45456 16C1.45456 7.96675 7.96675 1.45456 16 1.45456C24.0332 1.45456 30.5454 7.96675 30.5454 16C30.5454 24.0332 24.0332 30.5454 16 30.5454Z" fill="#121212"/>
<path d="M19.8981 13.8181C17.7163 13.8181 17.4545 15.1127 17.4545 15.1127V13.8181H14.5454V21.8181H17.4545V17.4545C17.4545 17.4545 17.4545 15.9999 18.6908 15.9999C19.4181 15.9999 19.6363 16.6472 19.6363 17.4545V21.8181H22.5453V17.4545C22.5453 15.1781 21.5563 13.8181 19.8981 13.8181Z" fill="#121212"/>
</g>
<defs>
<clipPath id="clip0_2044_1844">
<rect width="32" height="32" fill="white"/>
</clipPath>
</defs>
</svg>
