<svg width="307" height="56" viewBox="0 0 307 56" fill="none" xmlns="http://www.w3.org/2000/svg">
<g clip-path="url(#clip0_2012_310)">
<path d="M24.8046 20.6702C24.4593 20.9994 24.1712 21.3654 23.9377 21.7553C24.1412 21.9383 24.3377 22.1275 24.5271 22.3229C24.9508 21.4402 25.6309 20.6693 26.5374 20.1334C29.5388 18.3584 33.0423 18.178 36.063 19.3387C36.5132 19.1636 36.9757 19.014 37.4461 18.8908C33.4008 16.7769 28.2922 17.349 24.8046 20.6702Z" fill="white"/>
<path d="M28.9055 20.0419C27.1921 20.4564 25.8901 21.6866 25.3113 23.2188C25.5033 23.4634 25.6848 23.7142 25.8548 23.9721C26.5208 21.9436 28.4192 20.4678 30.6753 20.4423C31.6127 20.4317 32.5227 20.54 33.393 20.7512C33.7164 20.5276 34.052 20.3191 34.3973 20.1246C32.6601 19.645 30.7811 19.5869 28.9055 20.041V20.0419Z" fill="white"/>
<path d="M27.0723 35.9784C27.0406 35.7584 27.0106 35.526 26.9833 35.2849C26.4803 35.4556 25.9429 35.5524 25.3827 35.5586C25.188 35.5604 24.9942 35.5577 24.8012 35.5498C24.3149 35.8508 23.7723 36.069 23.1926 36.1834C24.4533 36.3436 25.7632 36.2846 27.0714 35.9784H27.0723Z" fill="white"/>
<path d="M26.424 24.9472C26.5649 25.2226 26.6935 25.5034 26.8081 25.7894C26.8257 25.4285 26.9244 25.066 27.1138 24.7298C27.1587 24.6497 27.2063 24.5714 27.2547 24.494C27.4697 23.4828 27.7383 22.8808 28.0291 22.8808C28.1586 22.8808 28.2836 23.0005 28.4017 23.2223C29.3496 22.4743 30.5336 22.0853 31.7325 22.1187C31.9633 21.8917 32.2038 21.6726 32.454 21.4631C29.8579 20.8753 27.2186 22.3792 26.4231 24.9463L26.424 24.9472Z" fill="white"/>
<path d="M29.8762 34.2702C29.7044 34.0335 29.5538 33.7809 29.426 33.5152C29.3564 33.6067 29.2842 33.6965 29.2093 33.7836C29.1803 34.2157 29.145 34.6275 29.1045 35.0165C29.389 34.7939 29.648 34.5448 29.8771 34.2711L29.8762 34.2702Z" fill="white"/>
<path d="M31.1158 35.46C30.9255 35.3333 30.745 35.1934 30.5749 35.042C30.2684 35.3553 29.916 35.6343 29.5204 35.8684C29.3337 35.9784 29.146 36.0822 28.9558 36.1799C28.9038 36.517 28.8474 36.8267 28.7866 37.1039C29.6138 36.6701 30.397 36.1218 31.1158 35.4609V35.46Z" fill="white"/>
<path d="M18.3685 34.345C17.9227 33.7563 17.6091 33.062 17.4691 32.3069C15.5407 30.3576 14.3373 27.6885 14.3047 24.7316C14.2959 23.9237 14.3285 23.1246 14.3999 22.3361C13.9012 21.7588 13.459 21.2457 13.311 20.7881C13.1516 23.1167 13.341 25.5095 13.9206 27.8988C14.5831 30.6295 16.2181 32.871 18.3685 34.3442V34.345Z" fill="white"/>
<path d="M21.0624 15.7438C20.0749 16.6846 19.3023 17.7652 18.7446 18.9251C19.0618 19.0122 19.3736 19.1108 19.682 19.2208C20.5849 17.3138 22.0482 15.647 24.0021 14.4915C35.1231 7.91413 49.4754 11.5874 56.0596 22.6969C53.9858 16.0157 48.4095 10.9714 41.5267 9.68653C34.384 8.35328 26.7242 10.3518 21.0633 15.7429L21.0624 15.7438Z" fill="white"/>
<path d="M29.049 26.0111C29.0993 25.9759 29.1512 25.9425 29.2041 25.9108C29.2975 25.6661 29.4023 25.4259 29.5151 25.1892C29.3204 25.2622 29.1407 25.359 28.9768 25.4743C29.0024 25.6459 29.0261 25.8254 29.049 26.0111Z" fill="white"/>
<path d="M26.8203 33.3154C26.7789 33.3365 26.7375 33.3568 26.6961 33.377C26.5155 33.7862 26.2803 34.1655 25.9993 34.5052C26.3023 34.4278 26.5965 34.323 26.8784 34.1928C26.8564 33.9094 26.837 33.6164 26.8203 33.3154Z" fill="white"/>
<path d="M17.4999 30.3735C17.5863 29.981 17.7202 29.6069 17.8946 29.2567C17.6796 28.8932 17.4867 28.5183 17.3158 28.1346C16.597 27.56 16.1741 26.8568 16.2261 26.0322C16.2825 25.1355 15.9133 24.3338 15.4183 23.6139C15.3407 26.0683 16.0992 28.4409 17.499 30.3743L17.4999 30.3735Z" fill="white"/>
<path d="M28.7144 24.1111C28.7619 24.2977 28.8077 24.5019 28.85 24.7245C28.8579 24.7201 28.865 24.7148 28.8729 24.7104C29.2544 24.4852 29.6526 24.3144 30.0596 24.1965C30.256 23.8814 30.4701 23.5752 30.7 23.2786C30.0005 23.4098 29.3222 23.6861 28.7144 24.1111Z" fill="white"/>
<path d="M41.5487 22.4637C41.3654 22.6767 41.1769 22.8993 40.9954 23.1299C41.1919 23.401 41.3778 23.6825 41.5513 23.9756C48.1355 35.0851 44.4584 49.4226 33.3374 56C40.0255 53.9284 45.0751 48.3578 46.3613 41.4821C47.5866 34.9285 45.9965 27.941 41.5487 22.4628V22.4637Z" fill="white"/>
<path d="M34.9963 40.2571C37.0507 38.3008 38.1783 35.739 38.3659 33.1174C38.0831 33.8742 37.6162 34.5404 37.0207 35.064C36.2834 37.6742 34.5787 40.0168 32.0575 41.5085C20.9365 48.0858 6.58416 44.4126 0 33.3031C2.07374 39.9843 7.6501 45.0286 14.5329 46.3135C21.6756 47.6467 29.3354 45.6482 34.9963 40.2571Z" fill="white"/>
<path d="M35.1717 15.845C30.2666 14.4053 25.1589 16.5517 22.6624 20.7494C22.8659 20.8902 23.0658 21.0354 23.2596 21.1868C26.416 16.4927 32.7077 14.9403 37.7256 17.7617C38.1854 18.0204 38.6312 18.2932 39.0664 18.5766C39.5703 18.5132 40.0795 18.4789 40.5922 18.4789C40.7657 18.4789 40.9287 18.4895 41.0829 18.5106C39.2884 17.378 37.3089 16.4724 35.1709 15.845H35.1717Z" fill="white"/>
<path d="M37.1573 48.833C41.8844 43.3205 43.981 35.6941 42.139 28.1012C41.7831 26.6333 41.1462 25.3071 40.2987 24.1657C40.1084 24.516 39.9613 24.8847 39.8855 25.2728C41.044 26.9871 41.7302 29.0472 41.7549 31.2702C41.8967 44.1794 31.536 54.76 18.6125 54.9017C25.4416 56.4488 32.6028 54.1466 37.1581 48.8339L37.1573 48.833Z" fill="white"/>
<path d="M48.8834 18.882C43.3652 14.1597 35.7309 12.0652 28.1301 13.9063C24.8407 14.7027 22.2622 16.9045 20.8765 19.7189C21.161 19.8544 21.4403 19.9996 21.7134 20.1545C23.5263 16.7057 27.1285 14.3366 31.3015 14.2909C44.2241 14.1492 54.8156 24.4992 54.9575 37.4093C56.5062 30.5873 54.2016 23.4335 48.8834 18.8829V18.882Z" fill="white"/>
<path d="M42.6419 19.586C42.7467 19.843 42.8022 20.1422 42.8022 20.4819C42.8022 20.7344 42.6815 21.0055 42.4895 21.2968C49.9872 28.5051 51.9817 40.1172 46.6405 49.5978C51.3958 44.4636 52.9806 37.1171 50.6532 30.5195C49.1318 26.2074 46.3604 22.3792 42.6419 19.5851V19.586Z" fill="white"/>
<path d="M25.5069 50.601C32.3597 48.1879 37.9925 42.6314 40.1975 35.1353C40.9991 32.4081 40.6899 29.6184 39.5324 27.2511C39.3606 27.545 39.121 27.8161 38.8267 28.0643C40.0953 31.0757 40.0072 34.6196 38.2788 37.6865C31.9404 48.9368 17.6718 52.9243 6.40894 46.5924C11.5484 51.3429 18.9025 52.926 25.5069 50.601Z" fill="white"/>
<path d="M18.9014 7.16788C15.9247 10.6387 13.9919 14.9482 13.4272 19.5596C13.688 18.9489 14.2465 18.5845 15.0755 18.5C17.6937 8.5812 26.6801 1.21797 37.4461 1.10005C30.6171 -0.447052 23.4559 1.85512 18.9005 7.16788H18.9014Z" fill="white"/>
<path d="M30.5511 5.39988C24.4277 7.55596 19.2803 12.2237 16.6807 18.5414C16.9864 18.5722 17.2894 18.6145 17.5898 18.6673C17.6506 18.5493 17.7131 18.4314 17.7792 18.3144C24.1176 7.06315 38.3862 3.0766 49.649 9.40843C44.5096 4.65802 37.1555 3.07484 30.5511 5.39988Z" fill="white"/>
<path d="M7.17518 37.1189C12.6934 41.8412 20.3277 43.9356 27.9284 42.0955C31.3104 41.2762 33.9417 38.9714 35.2966 36.0435C34.9205 36.1641 34.524 36.2397 34.1135 36.2653C32.2362 39.4862 28.7591 41.6678 24.757 41.7118C11.8345 41.8535 1.24292 31.5025 1.10108 18.5933C-0.447612 25.4153 1.85693 32.5691 7.17518 37.1198V37.1189Z" fill="white"/>
<path d="M15.7601 34.9602C18.8539 38.2022 23.463 39.1333 27.4255 37.7015C27.355 37.4691 27.289 37.1981 27.2282 36.8918C22.479 38.3897 17.1537 36.4897 14.5074 32.0244C7.92321 20.9149 11.6003 6.57736 22.7213 0C16.0332 2.0716 10.9836 7.6422 9.69742 14.5179C8.3628 21.6532 10.3634 29.3051 15.7601 34.9602Z" fill="white"/>
<path d="M20.8871 40.1559C25.4222 41.4874 30.1309 39.7528 32.7878 36.1658C32.5006 36.1042 32.2231 36.0189 31.957 35.9089C28.6139 39.7335 22.9371 40.8282 18.3324 38.2392C7.07043 31.9073 3.07888 17.6535 9.41726 6.40224C4.66194 11.5363 3.07712 18.8829 5.40457 25.4805C7.82011 32.3262 13.3824 37.954 20.8862 40.1559H20.8871Z" fill="white"/>
<path d="M77.9131 14.913C77.5255 13.9125 76.6534 12.7834 75.3284 11.5566C74.1973 10.4592 72.9058 9.74902 71.3871 9.42693C69.8683 9.10396 68.576 9.26588 67.4457 9.91095C66.186 10.6854 65.6046 12.2668 65.8627 13.8482C66.2177 16.0747 68.0915 17.5276 71.4514 18.2369C77.6215 19.5279 79.8512 21.8512 79.3667 26.0789C79.2054 28.1769 78.365 29.6932 76.8789 30.6938C75.3927 31.6618 73.6159 32.1459 71.5809 32.1459C68.0598 32.1133 65.2487 31.2746 63.1168 29.6932L63.0525 23.5611C63.7308 25.433 64.7968 27.0786 66.2512 28.4664C67.7373 29.8542 69.353 30.758 71.1299 31.1778C72.8741 31.5325 74.3929 31.4682 75.6852 30.92C77.0101 30.3708 77.6885 29.306 77.7528 27.7571C77.8171 26.4019 77.3326 25.2077 76.2666 24.1745C75.2007 23.1422 73.23 22.3027 70.322 21.6251C67.7699 21.0117 66.0257 20.1404 65.0883 19.0114C64.1519 17.8497 63.6991 16.4293 63.796 14.7186C63.8603 12.911 64.6038 11.4589 66.0574 10.3941C67.5109 9.29668 69.353 8.74843 71.5818 8.78011C73.8757 8.78011 76.1688 9.45774 77.1705 9.97432L77.8814 10.3615L77.914 14.9122L77.9131 14.913Z" fill="white"/>
<path d="M86.054 31.1136C84.4066 30.3717 83.0174 28.6609 82.4677 26.2399C82.0158 24.0451 82.3065 22.0765 83.3072 20.3341C84.3089 18.559 85.8267 17.4291 87.8626 16.8808C90.2852 16.2674 92.3853 16.4936 94.1948 17.6227C96.0042 18.7517 97.0702 20.6236 97.3609 23.2382C97.619 25.6266 97.0702 27.6594 95.6809 29.3377C94.3243 30.9833 92.5791 31.8871 90.4473 31.9839C89.058 32.0165 87.734 31.7903 86.054 31.1127V31.1136ZM92.0629 18.0108C90.8032 16.8817 89.3813 16.5904 87.7983 17.2038C86.9261 17.5267 86.2478 18.1392 85.7633 19.0756C84.7617 20.9149 84.7942 23.2065 85.2145 25.6266C85.6347 27.7888 86.4425 29.3377 87.5727 30.274C88.7356 31.2095 89.9636 31.6293 91.2234 31.5325C92.2893 31.4357 93.0971 30.9191 93.7112 30.0153C94.9709 28.176 94.9709 25.5614 94.5507 22.689C94.1631 20.7204 93.3227 19.139 92.0629 18.0099V18.0108Z" fill="white"/>
<path d="M107.506 30.2098C108.604 29.8551 109.541 29.2743 110.317 28.5316C109.574 29.4679 108.573 30.3391 107.313 31.081C106.053 31.8229 104.825 32.1142 103.565 32.0174C102.112 32.0499 101.368 30.9842 101.013 30.113C100.884 29.8551 100.787 29.4679 100.755 28.9188L100.658 27.6278V19.3977C100.658 18.3645 100.206 17.6869 99.5597 17.4616C98.9457 17.2038 98.655 17.1712 98.3643 17.1712H103.178V26.2725C103.178 26.8208 103.242 28.1443 103.372 28.5641C103.565 29.2417 103.953 30.1781 104.793 30.3066C105.504 30.597 106.409 30.5644 107.507 30.2098H107.506ZM110.511 19.2692C110.511 18.3329 110.09 17.6552 109.445 17.43C108.831 17.2038 108.573 17.1721 108.282 17.1721H113.031V28.5324C113.031 29.6941 113.806 29.6941 114.13 29.6941H114.259L110.512 32.1142V19.2692H110.511Z" fill="white"/>
<path d="M120.881 29.4996C120.881 30.5002 121.366 31.1778 122.044 31.4357C122.787 31.6618 123.046 31.6935 123.401 31.6935H115.841C116.196 31.6935 116.487 31.6609 117.166 31.4357C117.909 31.1778 118.362 30.5002 118.362 29.4996V12.8142C118.362 10.9749 117.327 10.9749 117.005 11.0717L120.882 8.5865V29.4996H120.881Z" fill="white"/>
<path d="M136.711 11.6534C136.711 12.2985 136.162 12.977 135.418 12.977C134.384 12.977 133.932 11.9764 134.094 10.7822C134.223 9.45861 133.447 8.81355 132.381 8.81355C131.379 8.81355 130.765 9.29756 130.475 10.4275C130.184 11.4924 130.12 12.4604 130.12 14.2354V17.1721H134.513L134.222 17.4625H130.12V29.3711C130.12 30.4359 130.637 31.1787 131.315 31.4365C132.058 31.6627 132.317 31.6944 132.672 31.6944H125.112C125.37 31.6944 125.533 31.6944 126.081 31.5334C126.824 31.3072 127.6 30.7589 127.6 29.3711V17.4625H125.92L125.533 17.1721H127.6V14.2354C127.6 9.265 131.218 8.16848 134.062 8.84611C135.451 9.20076 136.711 10.1046 136.711 11.6543V11.6534Z" fill="white"/>
<path d="M143.721 30.2098C144.82 29.8551 145.756 29.2743 146.532 28.5316C145.79 29.4679 144.788 30.3391 143.528 31.081C142.268 31.8229 141.04 32.1142 139.781 32.0174C138.327 32.0499 137.584 30.9842 137.229 30.113C137.099 29.8551 137.002 29.4679 136.97 28.9188L136.874 27.6278V19.3977C136.874 18.3645 136.422 17.6869 135.775 17.4616C135.161 17.2038 134.87 17.1712 134.58 17.1712H139.393V26.2725C139.393 26.8208 139.457 28.1443 139.587 28.5641C139.781 29.2417 140.168 30.1781 141.009 30.3066C141.72 30.597 142.624 30.5644 143.722 30.2098H143.721ZM146.726 19.2692C146.726 18.3329 146.306 17.6552 145.66 17.43C145.046 17.2038 144.788 17.1721 144.497 17.1721H149.246V28.5324C149.246 29.6941 150.022 29.6941 150.345 29.6941H150.474L146.727 32.1142V19.2692H146.726Z" fill="white"/>
<path d="M157.097 29.4996C157.097 30.5002 157.581 31.1778 158.259 31.4357C159.002 31.6618 159.261 31.6935 159.616 31.6935H152.057C152.412 31.6935 152.702 31.6609 153.382 31.4357C154.124 31.1778 154.577 30.5002 154.577 29.4996V12.8142C154.577 10.9749 153.543 10.9749 153.22 11.0717L157.097 8.5865V29.4996H157.097Z" fill="white"/>
<path d="M196.349 28.822C196.349 30.0804 196.898 30.92 197.674 31.2746C198.449 31.6293 198.902 31.6944 199.257 31.6944H190.373C190.728 31.6944 191.18 31.6302 191.923 31.2746C192.666 30.9191 193.215 30.0804 193.215 28.822V14.6218C193.215 13.3633 193.086 12.7174 192.828 12.6857C192.634 12.6857 192.376 13.1055 192.02 13.9125L191.859 14.2354L184.267 32.0182L174.737 13.7514C173.865 12.17 173.347 12.5255 173.347 14.2997L173.315 27.2731C173.315 28.9188 173.961 30.2098 174.607 30.7589C174.962 31.0493 175.35 31.2429 175.77 31.4049C176.675 31.6953 176.9 31.6953 177.127 31.6953H169.374C169.6 31.6953 169.891 31.6953 170.698 31.4049C171.764 30.9525 172.992 29.8234 172.992 27.2089V13.9767C172.992 9.94263 170.408 9.10308 169.891 9.10308L169.761 9.07052H175.835L184.041 24.7879C185.237 26.9827 185.818 27.1112 186.787 24.9173L193.636 9.10396H199.064C198.903 9.10396 196.35 9.265 196.35 12.1049V28.822H196.349Z" fill="white"/>
<path d="M209.498 30.1781C212.179 30.2749 214.053 29.2743 215.119 27.1121C214.828 28.4999 214.085 29.6941 212.89 30.6621C211.695 31.5976 210.274 32.0825 208.625 32.0499C206.591 32.0173 204.845 31.2755 203.456 29.8877C202.067 28.4673 201.356 26.628 201.324 24.4016C201.26 21.3355 202.454 19.0765 204.942 17.6244C206.202 16.8174 207.688 16.4628 209.368 16.5596C211.048 16.6564 212.405 17.334 213.471 18.5608C214.537 19.755 215.021 21.3364 214.989 23.2725H203.779C203.779 25.2737 204.297 26.9193 205.33 28.1778C206.396 29.4362 207.785 30.1138 209.498 30.179V30.1781ZM206.073 17.6878C204.652 18.7209 203.876 20.4951 203.779 23.0129C206.978 23.0129 208.884 22.9803 209.562 22.8835C210.951 22.7541 211.856 22.3995 212.308 21.7861C212.954 20.9465 213.147 18.8494 211.565 17.6227C210.143 16.4285 207.753 16.4927 206.073 17.6869V17.6878Z" fill="white"/>
<path d="M232.597 29.2743C232.242 30.4685 231.692 31.9531 229.818 31.9531C228.332 31.9531 227.59 31.0819 227.59 29.3069V23.078C225.489 23.7239 224.23 24.1754 222.84 24.9498C221.451 25.6917 220.773 26.628 220.676 27.7897C220.579 29.2417 221.484 30.5328 223.261 30.6296C224.617 30.7264 226.007 30.2098 227.46 29.0807C226.588 29.9845 226.362 30.2423 225.36 31.0168C224.358 31.7586 223.228 32.0816 221.936 32.0816C220.579 32.0816 219.577 31.6944 218.963 30.92C218.349 30.1455 218.091 29.2743 218.156 28.3379C218.188 27.4667 218.608 26.724 219.028 26.2083C219.512 25.66 220.514 25.1109 221.16 24.7562C221.838 24.4016 223.388 23.9492 224.165 23.7239L225.877 23.2725L227.59 22.7885V20.9809C227.59 17.9148 226.136 16.5921 223.972 16.9794C222.324 17.2698 221.064 18.2061 221.064 19.755C221.064 20.1748 221.484 20.9809 221.516 21.4006C221.612 23.2082 218.543 23.4987 218.64 21.2396C218.673 20.1748 219.222 19.2067 220.353 18.3672C221.484 17.5285 222.711 16.9794 224.036 16.7215C225.716 16.3985 227.169 16.5605 228.365 17.2381C229.592 17.9157 230.174 19.2067 230.142 21.1754V29.0825C230.142 29.9211 230.368 30.406 230.82 30.5028C231.305 30.5996 231.692 30.406 232.048 29.8895C232.274 29.8569 232.468 29.6633 232.597 29.2761V29.2743Z" fill="white"/>
<path d="M238.38 29.4996C238.38 30.5002 238.832 31.1778 239.446 31.4357C240.093 31.6618 240.384 31.6935 240.674 31.6935H233.599C233.89 31.6935 234.148 31.6609 234.795 31.4357C235.441 31.1778 235.861 30.5002 235.861 29.4996V20.4634C235.861 18.9146 234.698 18.9463 234.504 19.0431L238.381 16.5262V29.4996H238.38ZM248.072 29.4996C248.072 30.5002 248.524 31.1778 249.138 31.4357C249.784 31.6618 250.076 31.6935 250.366 31.6935H243.259C243.55 31.6935 243.808 31.6609 244.454 31.4357C245.1 31.1778 245.52 30.5002 245.52 29.4996V23.4969C245.52 22.755 245.52 22.2384 245.488 21.9155C245.488 21.5608 245.455 21.141 245.391 20.657C245.261 19.2692 244.874 18.8494 243.872 18.398C243.194 18.1401 242.322 18.2044 241.287 18.559C240.286 18.9137 239.349 19.4628 238.541 20.2047C240.221 18.2361 242.644 16.4936 245.099 16.7189C246.295 16.8482 247.199 17.3639 247.523 18.2361C247.813 18.9137 247.975 19.1715 248.007 20.2047C248.04 20.6887 248.071 21.0759 248.071 21.3021V29.4996H248.072Z" fill="white"/>
<path d="M256.988 29.4996C256.988 30.5327 257.409 31.1778 258.023 31.4357C258.668 31.6618 258.96 31.6935 259.251 31.6935H252.079C252.434 31.6935 252.693 31.6609 253.339 31.4357C254.017 31.1778 254.469 30.5319 254.469 29.4996V20.5602C254.469 19.2692 253.823 18.8177 253.144 18.9788L256.988 16.5262V29.4996ZM255.567 11.4598C256.44 11.4598 257.183 12.17 257.183 13.0738C257.183 13.9776 256.44 14.6878 255.567 14.6878C254.694 14.6878 253.984 13.9459 253.984 13.0738C253.984 12.2017 254.695 11.4598 255.567 11.4598Z" fill="white"/>
<path d="M266.002 29.4996C266.002 30.5002 266.454 31.1778 267.068 31.4357C267.715 31.6618 268.006 31.6935 268.296 31.6935H261.221C261.512 31.6935 261.77 31.6609 262.417 31.4357C263.063 31.1778 263.483 30.5002 263.483 29.4996V20.4634C263.483 18.9146 262.32 18.9463 262.126 19.0431L266.003 16.5262V29.4996H266.002ZM275.694 29.4996C275.694 30.5002 276.146 31.1778 276.76 31.4357C277.406 31.6618 277.698 31.6935 277.988 31.6935H270.881C271.172 31.6935 271.43 31.6609 272.076 31.4357C272.722 31.1778 273.142 30.5002 273.142 29.4996V23.4969C273.142 22.755 273.142 22.2384 273.11 21.9155C273.11 21.5608 273.077 21.141 273.013 20.657C272.883 19.2692 272.496 18.8494 271.494 18.398C270.816 18.1401 269.944 18.2044 268.909 18.559C267.908 18.9137 266.971 19.4628 266.164 20.2047C267.843 18.2361 270.266 16.4936 272.721 16.7189C273.917 16.8482 274.821 17.3639 275.145 18.2361C275.435 18.9137 275.597 19.1715 275.629 20.2047C275.662 20.6887 275.694 21.0759 275.694 21.3021V29.4996H275.694Z" fill="white"/>
<path d="M293.333 32.5982C294.205 34.7279 293.107 36.7291 292.138 37.7613C290.491 39.4721 288.229 40.214 285.289 39.9878C281.412 39.73 279.247 37.8581 279.247 35.5023C279.247 34.0819 280.022 32.7909 280.669 32.2752L281.121 31.9206C280.184 33.7281 280.346 35.2444 281.541 36.5038C282.769 37.7622 284.546 38.4724 286.839 38.6334C288.486 38.7628 289.908 38.5041 291.104 37.8265C292.299 37.1805 292.848 36.3419 292.751 35.277C292.881 33.3409 290.683 32.1467 287.291 32.1784C283.253 32.211 280.959 31.6944 280.571 29.7583C280.28 28.5641 281.153 27.4993 283.123 26.628L282.962 26.5638C281.185 25.7568 280.022 23.885 280.119 21.6911C280.152 19.5288 281.379 18.0116 283.802 17.0762C285.579 16.3985 287.938 16.5279 289.456 17.334C290.522 17.8823 291.297 18.7861 291.718 20.0454C292.17 21.3038 292.17 22.4655 291.75 23.5629C291.104 25.1117 290.135 26.0481 288.197 26.6932C286.614 27.2098 285.03 27.2423 283.48 26.7574C282.317 27.435 282.026 28.1778 282.575 28.9197C282.866 29.4037 283.416 29.6298 284.223 29.7583L285.321 29.8551C285.968 29.8551 287.259 29.8226 287.679 29.8226C291.039 29.9519 292.59 30.758 293.333 32.5982ZM287.971 26.4661C290.232 25.6591 290.136 22.0448 289.36 20.0436C288.165 16.8808 286.065 16.4936 284.288 17.2038C283.383 17.5584 282.802 18.3654 282.511 19.5922C282.253 20.7864 282.35 22.0774 282.834 23.4652C283.965 26.3051 286.033 27.1121 287.971 26.4661ZM293.108 17.7204C292.591 17.3006 292.074 16.9459 290.976 17.914C291.881 16.8491 292.753 16.3326 293.625 16.3326C295.208 16.3326 294.755 18.559 293.108 17.7204Z" fill="white"/>
<path d="M306.03 21.141C304.771 18.6558 302.509 16.9776 300.312 17.0102C298.794 17.0427 297.921 17.7203 297.76 18.9788C297.599 19.9468 297.728 21.7219 301.669 22.755C305.643 23.8199 307 25.1751 307 27.3374C307.032 29.9194 305.223 32.049 301.636 32.049C300.344 32.049 299.117 31.7586 298.276 31.565C298.05 31.5008 297.759 31.404 297.437 31.2746L296.209 30.6612L295.757 30.4034L295.693 26.0789C296.565 28.0159 297.631 29.4028 298.956 30.2423C301.378 31.8238 305.061 32.0499 305.385 29.6289C305.74 27.8539 304.513 26.4019 300.862 25.3687C297.341 24.3681 296.081 22.9803 296.081 20.9474C296.114 18.5273 298.084 16.5587 301.573 16.5587C303.414 16.5587 304.9 17.0102 306.031 17.9465V21.1419L306.03 21.141Z" fill="white"/>
<path d="M219.803 45.8497H217.187V53.0026H216.099V45.8497H213.477V44.9317H219.803V45.8497Z" fill="white"/>
<path d="M212.273 53.0026H211.18V44.9317H212.273V53.0026Z" fill="white"/>
<path d="M206.348 48.8404C206.664 48.8404 206.942 48.8029 207.183 48.7278C207.427 48.6489 207.63 48.54 207.792 48.4011C207.957 48.2584 208.081 48.0895 208.164 47.8942C208.247 47.699 208.288 47.4831 208.288 47.2465C208.288 46.7659 208.13 46.4036 207.814 46.1595C207.499 45.9154 207.025 45.7934 206.394 45.7934H205.198V48.8404H206.348ZM210.081 53.0026H209.111C208.912 53.0026 208.765 52.9257 208.671 52.7717L206.574 49.888C206.51 49.7979 206.44 49.7341 206.365 49.6965C206.294 49.6552 206.181 49.6346 206.027 49.6346H205.198V53.0026H204.11V44.9317H206.394C206.905 44.9317 207.346 44.9842 207.718 45.0894C208.091 45.1908 208.397 45.3391 208.637 45.5343C208.882 45.7296 209.062 45.9661 209.179 46.244C209.295 46.5181 209.353 46.826 209.353 47.1677C209.353 47.453 209.308 47.7196 209.218 47.9674C209.128 48.2152 208.996 48.4387 208.824 48.6377C208.654 48.8329 208.446 49 208.198 49.1389C207.953 49.2779 207.675 49.383 207.363 49.4543C207.502 49.5332 207.623 49.6477 207.724 49.7979L210.081 53.0026Z" fill="white"/>
<path d="M202.043 53.0026H200.95V44.9317H202.043V53.0026Z" fill="white"/>
<path d="M196.562 49.1164C196.874 49.1164 197.149 49.0751 197.386 48.9925C197.626 48.9099 197.827 48.7954 197.989 48.6489C198.154 48.4987 198.278 48.3204 198.361 48.1139C198.444 47.9074 198.485 47.6802 198.485 47.4324C198.485 46.918 198.325 46.5162 198.006 46.2271C197.69 45.938 197.209 45.7934 196.562 45.7934H195.266V49.1164H196.562ZM196.562 44.9317C197.074 44.9317 197.517 44.9917 197.893 45.1119C198.273 45.2283 198.586 45.3954 198.835 45.6132C199.083 45.8309 199.267 46.0938 199.387 46.4017C199.511 46.7096 199.573 47.0531 199.573 47.4324C199.573 47.8079 199.507 48.1514 199.376 48.4631C199.244 48.7747 199.051 49.0432 198.795 49.2685C198.543 49.4938 198.229 49.6702 197.853 49.7979C197.481 49.9218 197.051 49.9838 196.562 49.9838H195.266V53.0026H194.177V44.9317H196.562Z" fill="white"/>
<path d="M192.188 46.1933C192.154 46.2496 192.116 46.2928 192.075 46.3228C192.037 46.3491 191.99 46.3622 191.934 46.3622C191.87 46.3622 191.795 46.3303 191.708 46.2665C191.622 46.2027 191.513 46.1332 191.381 46.0581C191.254 45.9793 191.098 45.9079 190.913 45.8441C190.733 45.7803 190.513 45.7483 190.254 45.7483C190.009 45.7483 189.793 45.7821 189.605 45.8497C189.421 45.9136 189.265 46.0018 189.137 46.1144C189.013 46.2271 188.919 46.3604 188.856 46.5143C188.792 46.6645 188.76 46.8278 188.76 47.0043C188.76 47.2296 188.814 47.4174 188.923 47.5675C189.036 47.714 189.183 47.8398 189.363 47.9449C189.547 48.05 189.754 48.142 189.983 48.2209C190.216 48.296 190.453 48.3748 190.694 48.4574C190.938 48.54 191.175 48.6339 191.404 48.739C191.637 48.8404 191.844 48.97 192.024 49.1277C192.208 49.2854 192.355 49.4787 192.464 49.7078C192.577 49.9368 192.633 50.2184 192.633 50.5526C192.633 50.9056 192.573 51.2379 192.453 51.5495C192.332 51.8574 192.156 52.1259 191.923 52.3549C191.693 52.584 191.41 52.7642 191.071 52.8956C190.737 53.027 190.355 53.0927 189.927 53.0927C189.401 53.0927 188.923 52.9989 188.495 52.8111C188.066 52.6196 187.7 52.3624 187.395 52.0395L187.711 51.5214C187.741 51.48 187.777 51.4463 187.818 51.42C187.863 51.3899 187.912 51.3749 187.965 51.3749C188.014 51.3749 188.068 51.3956 188.128 51.4369C188.192 51.4744 188.264 51.5232 188.342 51.5833C188.421 51.6434 188.512 51.7091 188.613 51.7804C188.715 51.8518 188.829 51.9175 188.957 51.9776C189.089 52.0376 189.237 52.0883 189.402 52.1296C189.568 52.1672 189.754 52.186 189.961 52.186C190.22 52.186 190.451 52.1503 190.654 52.0789C190.857 52.0076 191.028 51.9081 191.167 51.7804C191.31 51.649 191.419 51.4932 191.494 51.313C191.569 51.1327 191.607 50.9318 191.607 50.7103C191.607 50.4663 191.55 50.2672 191.438 50.1133C191.329 49.9556 191.184 49.8242 191.004 49.719C190.823 49.6139 190.616 49.5257 190.383 49.4543C190.15 49.3792 189.914 49.3041 189.673 49.229C189.432 49.1502 189.196 49.0601 188.963 48.9587C188.73 48.8573 188.523 48.7259 188.342 48.5644C188.162 48.403 188.015 48.2021 187.903 47.9618C187.794 47.7177 187.739 47.4173 187.739 47.0606C187.739 46.7753 187.794 46.4993 187.903 46.2327C188.015 45.9661 188.177 45.7296 188.388 45.5231C188.602 45.3165 188.863 45.1513 189.171 45.0274C189.483 44.9035 189.84 44.8416 190.242 44.8416C190.694 44.8416 191.103 44.9129 191.472 45.0556C191.844 45.1983 192.171 45.4048 192.453 45.6751L192.188 46.1933Z" fill="white"/>
<path d="M183.594 48.97C183.594 49.5745 183.498 50.1246 183.306 50.6202C183.115 51.1158 182.844 51.5401 182.495 51.8931C182.145 52.246 181.724 52.5201 181.232 52.7154C180.743 52.9069 180.202 53.0026 179.608 53.0026H176.592V44.9317H179.608C180.202 44.9317 180.743 45.0293 181.232 45.2245C181.724 45.416 182.145 45.6901 182.495 46.0468C182.844 46.3998 183.115 46.8241 183.306 47.3197C183.498 47.8154 183.594 48.3654 183.594 48.97ZM182.472 48.97C182.472 48.4743 182.404 48.0313 182.269 47.6408C182.134 47.2503 181.942 46.9198 181.694 46.6495C181.446 46.3791 181.145 46.1726 180.792 46.03C180.439 45.8873 180.044 45.8159 179.608 45.8159H177.685V52.1184H179.608C180.044 52.1184 180.439 52.047 180.792 51.9043C181.145 51.7617 181.446 51.557 181.694 51.2904C181.942 51.0201 182.134 50.6897 182.269 50.2992C182.404 49.9087 182.472 49.4656 182.472 48.97Z" fill="white"/>
<path d="M174.526 44.9317V53.0026H173.979C173.893 53.0026 173.82 52.9876 173.759 52.9576C173.703 52.9275 173.647 52.8768 173.59 52.8055L168.916 46.7227C168.924 46.8166 168.93 46.9086 168.933 46.9987C168.937 47.0888 168.939 47.1733 168.939 47.2521V53.0026H167.98V44.9317H168.544C168.593 44.9317 168.634 44.9354 168.668 44.9429C168.702 44.9467 168.732 44.9561 168.759 44.9711C168.785 44.9824 168.811 45.0011 168.837 45.0274C168.864 45.0499 168.892 45.08 168.922 45.1175L173.596 51.1947C173.588 51.0971 173.581 51.0032 173.573 50.9131C173.57 50.8192 173.568 50.731 173.568 50.6484V44.9317H174.526Z" fill="white"/>
<path d="M164.64 50.0063L163.371 46.7227C163.334 46.6251 163.294 46.5124 163.253 46.3848C163.211 46.2534 163.172 46.1144 163.134 45.968C163.056 46.2721 162.975 46.5256 162.892 46.7283L161.623 50.0063H164.64ZM166.918 53.0026H166.072C165.974 53.0026 165.895 52.9782 165.835 52.9294C165.775 52.8806 165.73 52.8186 165.7 52.7435L164.944 50.7948H161.319L160.563 52.7435C160.541 52.8111 160.498 52.8712 160.434 52.9238C160.37 52.9763 160.291 53.0026 160.197 53.0026H159.351L162.582 44.9317H163.687L166.918 53.0026Z" fill="white"/>
<path d="M156.263 48.97C156.263 49.5745 156.167 50.1246 155.975 50.6202C155.784 51.1158 155.513 51.5401 155.164 51.8931C154.814 52.246 154.393 52.5201 153.901 52.7154C153.412 52.9069 152.871 53.0026 152.277 53.0026H149.26V44.9317H152.277C152.871 44.9317 153.412 45.0293 153.901 45.2245C154.393 45.416 154.814 45.6901 155.164 46.0468C155.513 46.3998 155.784 46.8241 155.975 47.3197C156.167 47.8154 156.263 48.3654 156.263 48.97ZM155.141 48.97C155.141 48.4743 155.073 48.0313 154.938 47.6408C154.803 47.2503 154.611 46.9198 154.363 46.6495C154.115 46.3791 153.814 46.1726 153.461 46.03C153.108 45.8873 152.713 45.8159 152.277 45.8159H150.354V52.1184H152.277C152.713 52.1184 153.108 52.047 153.461 51.9043C153.814 51.7617 154.115 51.557 154.363 51.2904C154.611 51.0201 154.803 50.6897 154.938 50.2992C155.073 49.9087 155.141 49.4656 155.141 48.97Z" fill="white"/>
<path d="M147.195 44.9317V53.0026H146.648C146.562 53.0026 146.488 52.9876 146.428 52.9576C146.372 52.9275 146.315 52.8768 146.259 52.8055L141.585 46.7227C141.593 46.8166 141.598 46.9086 141.602 46.9987C141.606 47.0888 141.608 47.1733 141.608 47.2521V53.0026H140.649V44.9317H141.213C141.262 44.9317 141.303 44.9354 141.337 44.9429C141.371 44.9467 141.401 44.9561 141.427 44.9711C141.454 44.9824 141.48 45.0011 141.506 45.0274C141.532 45.0499 141.561 45.08 141.591 45.1175L146.265 51.1947C146.257 51.0971 146.25 51.0032 146.242 50.9131C146.238 50.8192 146.236 50.731 146.236 50.6484V44.9317H147.195Z" fill="white"/>
<path d="M138.583 53.0026H137.489V44.9317H138.583V53.0026Z" fill="white"/>
<path d="M135.423 44.9317V53.0026H134.464V47.0719C134.464 46.9931 134.466 46.9086 134.47 46.8185C134.478 46.7283 134.485 46.6364 134.493 46.5425L131.719 51.5889C131.632 51.7579 131.501 51.8424 131.324 51.8424H131.166C130.99 51.8424 130.858 51.7579 130.772 51.5889L127.941 46.52C127.964 46.719 127.975 46.9029 127.975 47.0719V53.0026H127.017V44.9317H127.823C127.921 44.9317 127.996 44.9411 128.048 44.9598C128.101 44.9786 128.152 45.0312 128.201 45.1175L130.991 50.0851C131.037 50.1753 131.08 50.2691 131.121 50.3668C131.166 50.4644 131.208 50.5639 131.245 50.6653C131.283 50.5639 131.322 50.4644 131.364 50.3668C131.405 50.2654 131.45 50.1696 131.499 50.0795L134.239 45.1175C134.284 45.0312 134.333 44.9786 134.386 44.9598C134.442 44.9411 134.519 44.9317 134.617 44.9317H135.423Z" fill="white"/>
<path d="M122.457 49.122V52.2197C122.051 52.5126 121.617 52.7323 121.155 52.8787C120.696 53.0214 120.193 53.0927 119.644 53.0927C118.994 53.0927 118.407 52.9932 117.885 52.7942C117.362 52.5915 116.915 52.3099 116.543 51.9494C116.175 51.5852 115.891 51.1496 115.692 50.6427C115.492 50.1358 115.393 49.5782 115.393 48.97C115.393 48.3542 115.489 47.7928 115.68 47.2859C115.876 46.779 116.152 46.3454 116.509 45.9849C116.866 45.6207 117.3 45.3391 117.812 45.1401C118.323 44.9411 118.894 44.8416 119.525 44.8416C119.845 44.8416 120.142 44.866 120.416 44.9148C120.691 44.9598 120.944 45.0274 121.177 45.1175C121.41 45.2039 121.627 45.3109 121.826 45.4386C122.025 45.5625 122.211 45.7033 122.384 45.861L122.074 46.3566C122.025 46.4317 121.961 46.4805 121.882 46.5031C121.807 46.5218 121.722 46.5031 121.628 46.4467C121.538 46.3942 121.435 46.3303 121.318 46.2552C121.202 46.1801 121.059 46.1088 120.89 46.0412C120.725 45.9699 120.527 45.9098 120.298 45.861C120.072 45.8122 119.804 45.7878 119.492 45.7878C119.037 45.7878 118.625 45.8629 118.257 46.0131C117.889 46.1595 117.575 46.3716 117.315 46.6495C117.056 46.9236 116.857 47.2578 116.718 47.652C116.579 48.0425 116.509 48.4818 116.509 48.97C116.509 49.4769 116.581 49.9312 116.723 50.333C116.87 50.731 117.077 51.0708 117.344 51.3524C117.614 51.6302 117.941 51.8424 118.325 51.9888C118.708 52.1353 119.138 52.2085 119.616 52.2085C119.992 52.2085 120.324 52.1672 120.614 52.0846C120.907 51.9982 121.192 51.8799 121.471 51.7297V49.9556H120.213C120.142 49.9556 120.084 49.9349 120.039 49.8936C119.997 49.8523 119.977 49.8017 119.977 49.7416V49.122H122.457Z" fill="white"/>
<path d="M113.829 44.9317V53.0026H113.282C113.196 53.0026 113.123 52.9876 113.062 52.9576C113.006 52.9275 112.95 52.8768 112.893 52.8055L108.219 46.7227C108.227 46.8166 108.233 46.9086 108.236 46.9987C108.24 47.0888 108.242 47.1733 108.242 47.2521V53.0026H107.283V44.9317H107.847C107.896 44.9317 107.937 44.9354 107.971 44.9429C108.005 44.9467 108.035 44.9561 108.061 44.9711C108.088 44.9824 108.114 45.0011 108.14 45.0274C108.167 45.0499 108.195 45.08 108.225 45.1175L112.899 51.1947C112.891 51.0971 112.884 51.0032 112.876 50.9131C112.873 50.8192 112.871 50.731 112.871 50.6484V44.9317H113.829Z" fill="white"/>
<path d="M105.217 53.0026H104.123V44.9317H105.217V53.0026Z" fill="white"/>
<path d="M102.924 45.8497H100.308V53.0026H99.2201V45.8497H96.5984V44.9317H102.924V45.8497Z" fill="white"/>
<path d="M94.9132 50.0063L93.6447 46.7227C93.6071 46.6251 93.5676 46.5124 93.5263 46.3848C93.4849 46.2534 93.4455 46.1144 93.4079 45.968C93.3289 46.2721 93.2481 46.5256 93.1654 46.7283L91.8969 50.0063H94.9132ZM97.191 53.0026H96.3453C96.2476 53.0026 96.1686 52.9782 96.1085 52.9294C96.0484 52.8806 96.0032 52.8186 95.9732 52.7435L95.2177 50.7948H91.5924L90.8369 52.7435C90.8144 52.8111 90.7712 52.8712 90.7073 52.9238C90.6434 52.9763 90.5644 53.0026 90.4705 53.0026H89.6248L92.8553 44.9317H93.9604L97.191 53.0026Z" fill="white"/>
<path d="M90.1654 44.9317L86.8727 53.0026H85.8917L82.5991 44.9317H83.473C83.5707 44.9317 83.6497 44.9561 83.7098 45.0049C83.77 45.0537 83.8151 45.1157 83.8451 45.1908L86.1229 50.8849C86.1718 51.0126 86.2187 51.1515 86.2638 51.3017C86.3127 51.4519 86.3559 51.6096 86.3935 51.7748C86.4311 51.6096 86.4706 51.4519 86.5119 51.3017C86.5533 51.1515 86.5984 51.0126 86.6472 50.8849L88.9194 45.1908C88.9419 45.1269 88.9851 45.0687 89.049 45.0162C89.1167 44.9598 89.1975 44.9317 89.2915 44.9317H90.1654Z" fill="white"/>
<path d="M82.0731 52.1127L82.0675 53.0026H77.0891V44.9317H82.0675V45.8216H78.1829V48.5025H81.3289V49.3586H78.1829V52.1127H82.0731Z" fill="white"/>
<path d="M75.8808 52.0846V53.0026H71.2971V44.9317H72.3853V52.0846H75.8808Z" fill="white"/>
<path d="M69.7731 52.1127L69.7674 53.0026H64.7891V44.9317H69.7674V45.8216H65.8828V48.5025H69.0289V49.3586H65.8828V52.1127H69.7731Z" fill="white"/>
</g>
<defs>
<clipPath id="clip0_2012_310">
<rect width="307" height="56" fill="white"/>
</clipPath>
</defs>
</svg>
