<svg width="187" height="74" viewBox="0 0 187 74" fill="none" xmlns="http://www.w3.org/2000/svg">
<path d="M91.0279 15.8415C90.7632 16.0937 90.5424 16.3743 90.3635 16.6731C90.5195 16.8134 90.67 16.9584 90.8152 17.1081C91.1399 16.4316 91.6612 15.8408 92.3559 15.4301C94.6561 14.0697 97.3412 13.9314 99.6563 14.821C100.001 14.6868 100.356 14.5721 100.716 14.4777C97.616 12.8577 93.7008 13.2961 91.0279 15.8415Z" fill="#121212"/>
<path d="M94.1711 15.3599C92.8579 15.6775 91.8601 16.6204 91.4165 17.7946C91.5637 17.9821 91.7028 18.1744 91.8331 18.372C92.3435 16.8174 93.7984 15.6863 95.5275 15.6667C96.2458 15.6587 96.9433 15.7416 97.6103 15.9035C97.8581 15.7322 98.1153 15.5723 98.38 15.4233C97.0486 15.0557 95.6085 15.0112 94.1711 15.3592V15.3599Z" fill="#121212"/>
<path d="M92.7658 27.5735C92.7415 27.4049 92.7186 27.2268 92.6976 27.042C92.3121 27.1728 91.9003 27.247 91.4709 27.2518C91.3217 27.2531 91.1732 27.2511 91.0253 27.245C90.6526 27.4757 90.2367 27.6429 89.7925 27.7306C90.7586 27.8534 91.7626 27.8082 92.7652 27.5735H92.7658Z" fill="#121212"/>
<path d="M92.269 19.1195C92.377 19.3306 92.4756 19.5457 92.5634 19.7649C92.5769 19.4884 92.6525 19.2105 92.7976 18.9529C92.8321 18.8915 92.8685 18.8315 92.9057 18.7721C93.0704 17.9972 93.2763 17.5359 93.4991 17.5359C93.5984 17.5359 93.6942 17.6276 93.7847 17.7975C94.5112 17.2243 95.4186 16.9262 96.3374 16.9518C96.5143 16.7778 96.6986 16.6098 96.8904 16.4493C94.9007 15.9988 92.878 17.1514 92.2683 19.1188L92.269 19.1195Z" fill="#121212"/>
<path d="M94.9149 26.2645C94.7833 26.083 94.6678 25.8895 94.5699 25.6858C94.5166 25.7559 94.4612 25.8247 94.4038 25.8915C94.3815 26.2227 94.3545 26.5383 94.3235 26.8364C94.5416 26.6658 94.7401 26.4749 94.9156 26.2651L94.9149 26.2645Z" fill="#121212"/>
<path d="M95.8647 27.1763C95.7189 27.0792 95.5804 26.972 95.4501 26.856C95.2152 27.0961 94.9451 27.3099 94.642 27.4893C94.4989 27.5736 94.3551 27.6532 94.2092 27.728C94.1694 27.9863 94.1262 28.2238 94.0796 28.4362C94.7136 28.1037 95.3138 27.6835 95.8647 27.177V27.1763Z" fill="#121212"/>
<path d="M86.0955 26.3218C85.7539 25.8706 85.5135 25.3385 85.4062 24.7598C83.9283 23.2659 83.006 21.2203 82.9811 18.9541C82.9743 18.335 82.9993 17.7226 83.054 17.1183C82.6718 16.6758 82.3329 16.2826 82.2195 15.9319C82.0973 17.7165 82.2425 19.5503 82.6867 21.3815C83.1944 23.4743 84.4475 25.1921 86.0955 26.3211V26.3218Z" fill="#121212"/>
<path d="M88.1606 12.0662C87.4038 12.7872 86.8116 13.6154 86.3843 14.5044C86.6273 14.5711 86.8663 14.6467 87.1026 14.731C87.7947 13.2694 88.9161 11.992 90.4136 11.1065C98.9366 6.06561 109.936 8.88077 114.982 17.395C113.393 12.2746 109.119 8.40866 103.844 7.42396C98.3702 6.40217 92.4998 7.93385 88.1613 12.0655L88.1606 12.0662Z" fill="#121212"/>
<path d="M94.2809 19.9346C94.3194 19.9077 94.3593 19.882 94.3998 19.8577C94.4713 19.6702 94.5517 19.4861 94.6381 19.3047C94.4889 19.3607 94.3512 19.4349 94.2256 19.5232C94.2452 19.6547 94.2634 19.7923 94.2809 19.9346Z" fill="#121212"/>
<path d="M92.5728 25.5327C92.5411 25.5489 92.5094 25.5644 92.4776 25.5799C92.3392 25.8935 92.159 26.1842 91.9436 26.4446C92.1759 26.3852 92.4014 26.305 92.6174 26.2051C92.6005 25.988 92.5857 25.7634 92.5728 25.5327Z" fill="#121212"/>
<path d="M85.4301 23.2779C85.4963 22.9771 85.5989 22.6904 85.7326 22.422C85.5678 22.1434 85.42 21.8561 85.289 21.5621C84.7381 21.1216 84.414 20.5828 84.4538 19.9508C84.497 19.2635 84.2141 18.6491 83.8347 18.0974C83.7753 19.9785 84.3566 21.7968 85.4294 23.2786L85.4301 23.2779Z" fill="#121212"/>
<path d="M94.0242 18.4788C94.0606 18.6218 94.0957 18.7783 94.1281 18.9489C94.1342 18.9456 94.1396 18.9415 94.1457 18.9382C94.438 18.7655 94.7432 18.6346 95.0551 18.5443C95.2057 18.3028 95.3697 18.0681 95.546 17.8408C95.0099 17.9413 94.49 18.1531 94.0242 18.4788Z" fill="#121212"/>
<path d="M103.861 17.216C103.72 17.3792 103.576 17.5499 103.437 17.7266C103.587 17.9343 103.73 18.1501 103.863 18.3747C108.909 26.889 106.091 37.8771 97.5679 42.918C102.694 41.3303 106.564 37.0611 107.549 31.7916C108.488 26.7689 107.27 21.4138 103.861 17.2153V17.216Z" fill="#121212"/>
<path d="M98.839 30.8527C100.413 29.3534 101.278 27.39 101.421 25.3809C101.205 25.9609 100.847 26.4714 100.391 26.8727C99.8254 28.8732 98.519 30.6685 96.5867 31.8117C88.0636 36.8526 77.0641 34.0374 72.0181 25.5232C73.6074 30.6436 77.8811 34.5096 83.156 35.4943C88.6301 36.516 94.5005 34.9844 98.839 30.8527Z" fill="#121212"/>
<path d="M98.9733 12.1432C95.2141 11.0398 91.2996 12.6848 89.3862 15.9019C89.5422 16.0098 89.6954 16.1211 89.844 16.2371C92.263 12.6396 97.0849 11.4499 100.931 13.6122C101.283 13.8105 101.625 14.0195 101.958 14.2367C102.344 14.1881 102.735 14.1618 103.128 14.1618C103.261 14.1618 103.385 14.1699 103.504 14.1861C102.128 13.3181 100.611 12.6241 98.9727 12.1432H98.9733Z" fill="#121212"/>
<path d="M100.495 37.4251C104.118 33.2004 105.725 27.3556 104.313 21.5364C104.04 20.4114 103.552 19.395 102.903 18.5203C102.757 18.7887 102.644 19.0713 102.586 19.3687C103.474 20.6825 104 22.2614 104.019 23.9651C104.127 33.8586 96.1869 41.9676 86.2825 42.0761C91.5162 43.2618 97.0045 41.4975 100.496 37.4258L100.495 37.4251Z" fill="#121212"/>
<path d="M109.482 14.4712C105.253 10.8521 99.4024 9.24689 93.5772 10.6578C91.0562 11.2682 89.0801 12.9557 88.0181 15.1126C88.2361 15.2165 88.4502 15.3277 88.6595 15.4464C90.0489 12.8033 92.8096 10.9877 96.0078 10.9526C105.912 10.844 114.029 18.7762 114.138 28.6704C115.324 23.4421 113.558 17.9595 109.482 14.4719V14.4712Z" fill="#121212"/>
<path d="M104.698 15.0104C104.779 15.2074 104.821 15.4367 104.821 15.697C104.821 15.8906 104.729 16.0983 104.582 16.3216C110.328 21.846 111.856 30.7454 107.763 38.0112C111.407 34.0765 112.622 28.4462 110.838 23.3898C109.672 20.085 107.548 17.1511 104.698 15.0098V15.0104Z" fill="#121212"/>
<path d="M91.5665 38.7802C96.8185 36.9309 101.135 32.6724 102.825 26.9274C103.44 24.8373 103.203 22.6993 102.316 20.885C102.184 21.1103 102 21.318 101.775 21.5082C102.747 23.8162 102.679 26.5322 101.355 28.8827C96.4971 37.5048 85.5617 40.5608 76.9299 35.7081C80.8687 39.3488 86.5049 40.5621 91.5665 38.7802Z" fill="#121212"/>
<path d="M86.5042 5.49338C84.2229 8.15341 82.7416 11.4562 82.3088 14.9903C82.5087 14.5223 82.9367 14.243 83.572 14.1783C85.5786 6.57654 92.4658 0.933409 100.717 0.843033C95.483 -0.342652 89.9947 1.42172 86.5035 5.49338H86.5042Z" fill="#121212"/>
<path d="M95.4322 4.13855C90.7393 5.79096 86.7944 9.36824 84.802 14.2101C85.0363 14.2337 85.2685 14.2661 85.4988 14.3066C85.5453 14.2162 85.5933 14.1258 85.6439 14.0361C90.5016 5.41327 101.437 2.358 110.069 7.21068C106.13 3.56999 100.494 2.35665 95.4322 4.13855Z" fill="#121212"/>
<path d="M77.5169 28.4476C81.746 32.0667 87.5968 33.6719 93.422 32.2617C96.0139 31.6337 98.0306 29.8674 99.069 27.6235C98.7807 27.7159 98.4768 27.7739 98.1622 27.7934C96.7235 30.2619 94.0587 31.9339 90.9915 31.9676C81.0877 32.0762 72.9704 24.1433 72.8617 14.2498C71.6748 19.4781 73.441 24.9607 77.5169 28.4483V28.4476Z" fill="#121212"/>
<path d="M84.096 26.7932C86.4672 29.2779 89.9995 29.9915 93.0364 28.8942C92.9823 28.7161 92.9317 28.5084 92.8851 28.2737C89.2454 29.4216 85.1641 27.9655 83.136 24.5433C78.0899 16.029 80.908 5.04085 89.4311 0C84.3053 1.58766 80.4354 5.85693 79.4497 11.1264C78.4268 16.5949 79.9601 22.4592 84.096 26.7932Z" fill="#121212"/>
<path d="M88.0259 30.7753C91.5015 31.7958 95.1102 30.4664 97.1465 27.7173C96.9264 27.6701 96.7137 27.6047 96.5098 27.5204C93.9476 30.4516 89.5969 31.2906 86.0679 29.3064C77.4368 24.4537 74.3778 13.5296 79.2354 4.90674C75.591 8.84149 74.3764 14.4718 76.1601 19.5282C78.0114 24.7747 82.2743 29.0878 88.0252 30.7753H88.0259Z" fill="#121212"/>
<path d="M11.4093 53.898C11.1123 53.1312 10.4439 52.2659 9.42845 51.3257C8.56156 50.4846 7.5718 49.9403 6.40784 49.6935C5.24389 49.446 4.25344 49.5701 3.38723 50.0644C2.42177 50.658 1.97617 51.8699 2.17399 53.0819C2.44607 54.7883 3.88211 55.9018 6.45713 56.4454C11.1859 57.4348 12.8947 59.2154 12.5233 62.4555C12.3998 64.0634 11.7557 65.2254 10.6167 65.9923C9.47774 66.7342 8.11597 67.1051 6.55638 67.1051C3.85781 67.0802 1.70341 66.4374 0.0695482 65.2254L0.0202637 60.5259C0.540128 61.9604 1.35706 63.2216 2.47173 64.2852C3.6107 65.3489 4.84893 66.0415 6.2107 66.3632C7.54749 66.635 8.71145 66.5858 9.70189 66.1656C10.7173 65.7448 11.2372 64.9287 11.2865 63.7416C11.3357 62.703 10.9644 61.7877 10.1475 60.9959C9.33056 60.2048 7.82025 59.5614 5.59159 59.0421C3.63568 58.572 2.29889 57.9043 1.58053 57.0389C0.862848 56.1487 0.515823 55.0601 0.590089 53.749C0.639375 52.3636 1.2092 51.2508 2.32319 50.4347C3.43719 49.5937 4.84893 49.1735 6.55705 49.1978C8.31514 49.1978 10.0725 49.7171 10.8402 50.113L11.385 50.4098L11.41 53.8973L11.4093 53.898Z" fill="#121212"/>
<path d="M17.6485 66.314C16.386 65.7455 15.3213 64.4343 14.9 62.5789C14.5536 60.8968 14.7764 59.3881 15.5434 58.0527C16.3111 56.6923 17.4743 55.8263 19.0346 55.4062C20.8913 54.9361 22.5008 55.1094 23.8876 55.9747C25.2743 56.84 26.0913 58.2746 26.3141 60.2784C26.5119 62.1088 26.0913 63.6668 25.0265 64.953C23.9868 66.2142 22.6493 66.9069 21.0155 66.9811C19.9508 67.006 18.936 66.8327 17.6485 66.3134V66.314ZM22.2537 56.2721C21.2883 55.4068 20.1986 55.1836 18.9853 55.6537C18.3169 55.9012 17.7971 56.3706 17.4257 57.0882C16.6581 58.4978 16.6831 60.2541 17.0051 62.1088C17.3272 63.766 17.9463 64.953 18.8125 65.6706C19.7037 66.3876 20.6448 66.7093 21.6103 66.6351C22.4272 66.5609 23.0463 66.165 23.5169 65.4723C24.4824 64.0627 24.4824 62.0589 24.1603 59.8575C23.8633 58.3488 23.2192 57.1368 22.2537 56.2715V56.2721Z" fill="#121212"/>
<path d="M34.0888 65.6213C34.9307 65.3495 35.6484 64.9044 36.2432 64.3351C35.674 65.0528 34.9064 65.7205 33.9409 66.289C32.9755 66.8576 32.0343 67.0808 31.0688 67.0067C29.9548 67.0316 29.385 66.2148 29.1129 65.5471C29.0137 65.3495 28.9394 65.0528 28.9151 64.6319L28.8409 63.6425V57.335C28.8409 56.5432 28.4945 56.0239 27.9989 55.8512C27.5284 55.6536 27.3056 55.6287 27.0828 55.6287H30.7718V62.6038C30.7718 63.024 30.8211 64.0384 30.9203 64.3601C31.0688 64.8794 31.3659 65.5971 32.01 65.6955C32.5548 65.9181 33.2482 65.8931 34.0895 65.6213H34.0888ZM36.3917 57.2365C36.3917 56.5189 36.0697 55.9996 35.5748 55.8269C35.1042 55.6536 34.9064 55.6293 34.6836 55.6293H38.3233V64.3358C38.3233 65.2261 38.9174 65.2261 39.1652 65.2261H39.2645L36.3924 67.0808V57.2365H36.3917Z" fill="#121212"/>
<path d="M44.3401 65.077C44.3401 65.8438 44.7114 66.3631 45.2313 66.5608C45.8004 66.7341 45.9989 66.7584 46.271 66.7584H40.4775C40.7496 66.7584 40.9724 66.7334 41.493 66.5608C42.0621 66.3631 42.4091 65.8438 42.4091 65.077V52.2894C42.4091 50.8798 41.6165 50.8798 41.3694 50.954L44.3407 49.0493V65.077H44.3401Z" fill="#121212"/>
<path d="M56.4713 51.3997C56.4713 51.8941 56.0507 52.4141 55.4808 52.4141C54.6882 52.4141 54.3419 51.6473 54.4654 50.732C54.5647 49.7177 53.9699 49.2233 53.1529 49.2233C52.3853 49.2233 51.9147 49.5942 51.6919 50.4602C51.4691 51.2763 51.4198 52.0182 51.4198 53.3786V55.6292H54.7868L54.564 55.8518H51.4198V64.9785C51.4198 65.7946 51.8161 66.3638 52.336 66.5614C52.9051 66.7347 53.1036 66.759 53.3757 66.759H47.5823C47.7801 66.759 47.9043 66.759 48.3249 66.6356C48.8941 66.4623 49.4889 66.0421 49.4889 64.9785V55.8518H48.2014L47.9043 55.6292H49.4889V53.3786C49.4889 49.5693 52.2617 48.7289 54.4411 49.2482C55.5058 49.5201 56.4713 50.2127 56.4713 51.4004V51.3997Z" fill="#121212"/>
<path d="M61.8444 65.6213C62.6863 65.3495 63.404 64.9044 63.9988 64.3351C63.4296 65.0528 62.662 65.7205 61.6965 66.289C60.7311 66.8576 59.7899 67.0808 58.8245 67.0067C57.7105 67.0316 57.1406 66.2148 56.8686 65.5471C56.7693 65.3495 56.695 65.0528 56.6707 64.6319L56.5965 63.6425V57.335C56.5965 56.5432 56.2501 56.0239 55.7546 55.8512C55.284 55.6536 55.0612 55.6287 54.8384 55.6287H58.5274V62.6038C58.5274 63.024 58.5767 64.0384 58.6759 64.3601C58.8245 64.8794 59.1215 65.5971 59.7656 65.6955C60.3105 65.9181 61.0038 65.8931 61.8451 65.6213H61.8444ZM64.1473 57.2365C64.1473 56.5189 63.8253 55.9996 63.3304 55.8269C62.8598 55.6536 62.662 55.6293 62.4392 55.6293H66.0789V64.3358C66.0789 65.2261 66.6731 65.2261 66.9208 65.2261H67.0201L64.148 67.0808V57.2365H64.1473Z" fill="#121212"/>
<path d="M72.0947 65.077C72.0947 65.8438 72.466 66.3631 72.9859 66.5608C73.555 66.7341 73.7535 66.7584 74.0256 66.7584H68.2322C68.5043 66.7584 68.7271 66.7334 69.2476 66.5608C69.8168 66.3631 70.1638 65.8438 70.1638 65.077V52.2894C70.1638 50.8798 69.3712 50.8798 69.1241 50.954L72.0954 49.0493V65.077H72.0947Z" fill="#121212"/>
<path d="M102.178 64.5575C102.178 65.522 102.598 66.1654 103.193 66.4372C103.787 66.7091 104.134 66.759 104.407 66.759H97.5977C97.8697 66.759 98.2168 66.7097 98.7859 66.4372C99.3551 66.1648 99.7764 65.522 99.7764 64.5575V53.6746C99.7764 52.7101 99.6771 52.2151 99.4793 52.1908C99.3308 52.1908 99.1329 52.5125 98.8602 53.131L98.7366 53.3785L92.9182 67.0072L85.6145 53.0076C84.9461 51.7956 84.5497 52.0681 84.5497 53.4277L84.5248 63.3705C84.5248 64.6317 85.0197 65.6212 85.5152 66.042C85.7873 66.2646 86.0844 66.413 86.4064 66.5371C87.0998 66.7596 87.2726 66.7596 87.4461 66.7596H81.5042C81.6777 66.7596 81.9005 66.7596 82.5196 66.5371C83.3365 66.1904 84.2777 65.3251 84.2777 63.3213V53.1802C84.2777 50.0885 82.2968 49.4451 81.9005 49.4451L81.8012 49.4202H86.4564L92.7454 61.4659C93.6615 63.1479 94.1071 63.2464 94.8498 61.565L100.099 49.4458H104.259C104.135 49.4458 102.179 49.5692 102.179 51.7457V64.5575H102.178Z" fill="#121212"/>
<path d="M112.255 65.597C114.31 65.6712 115.746 64.9044 116.563 63.2472C116.34 64.3108 115.77 65.2261 114.855 65.968C113.939 66.6849 112.85 67.0565 111.587 67.0316C110.027 67.0066 108.689 66.4381 107.625 65.3745C106.56 64.2859 106.015 62.8763 105.991 61.1699C105.942 58.8201 106.857 57.0888 108.764 55.976C109.729 55.3575 110.868 55.0857 112.156 55.1599C113.443 55.2341 114.483 55.7534 115.3 56.6936C116.117 57.6088 116.488 58.8208 116.464 60.3046H107.873C107.873 61.8383 108.269 63.0995 109.061 64.064C109.878 65.0284 110.942 65.5478 112.255 65.5977V65.597ZM109.631 56.0245C108.541 56.8163 107.947 58.176 107.873 60.1056C110.324 60.1056 111.784 60.0807 112.304 60.0065C113.369 59.9073 114.062 59.6355 114.409 59.1655C114.904 58.522 115.052 56.9148 113.84 55.9746C112.75 55.0594 110.918 55.1086 109.631 56.0239V56.0245Z" fill="#121212"/>
<path d="M129.958 64.9041C129.686 65.8193 129.265 66.9571 127.829 66.9571C126.69 66.9571 126.121 66.2894 126.121 64.929V60.1552C124.511 60.6503 123.546 60.9963 122.481 61.5898C121.416 62.1584 120.896 62.876 120.822 63.7663C120.748 64.8791 121.441 65.8685 122.803 65.9427C123.843 66.0169 124.907 65.621 126.021 64.7557C125.353 65.4483 125.179 65.6459 124.412 66.2395C123.644 66.808 122.778 67.0556 121.787 67.0556C120.748 67.0556 119.98 66.7588 119.51 66.1653C119.039 65.5718 118.841 64.904 118.89 64.1864C118.915 63.5187 119.237 62.9495 119.559 62.5543C119.93 62.1341 120.698 61.7132 121.193 61.4414C121.713 61.1696 122.901 60.8229 123.496 60.6503L124.808 60.3043L126.121 59.9333V58.548C126.121 56.1982 125.007 55.1845 123.348 55.4813C122.085 55.7039 121.119 56.4215 121.119 57.6085C121.119 57.9302 121.441 58.548 121.465 58.8697C121.54 60.2551 119.187 60.4776 119.262 58.7463C119.287 57.9302 119.707 57.1883 120.574 56.5449C121.441 55.9021 122.382 55.4813 123.397 55.2837C124.685 55.0362 125.799 55.1603 126.715 55.6796C127.655 56.1989 128.101 57.1883 128.076 58.6971V64.757C128.076 65.3998 128.25 65.7714 128.596 65.8456C128.968 65.9198 129.265 65.7714 129.538 65.3755C129.711 65.3505 129.86 65.2022 129.958 64.9054V64.9041Z" fill="#121212"/>
<path d="M134.39 65.0768C134.39 65.8436 134.737 66.363 135.207 66.5606C135.703 66.7339 135.926 66.7582 136.148 66.7582H130.726C130.949 66.7582 131.147 66.7332 131.642 66.5606C132.137 66.363 132.459 65.8436 132.459 65.0768V58.1515C132.459 56.9645 131.568 56.9888 131.42 57.063L134.391 55.134V65.0768H134.39ZM141.818 65.0768C141.818 65.8436 142.165 66.363 142.635 66.5606C143.13 66.7339 143.354 66.7582 143.576 66.7582H138.129C138.352 66.7582 138.55 66.7332 139.045 66.5606C139.54 66.363 139.862 65.8436 139.862 65.0768V60.4764C139.862 59.9078 139.862 59.5119 139.837 59.2644C139.837 58.9926 139.812 58.6709 139.763 58.2999C139.664 57.2363 139.367 56.9146 138.599 56.5686C138.079 56.371 137.411 56.4202 136.618 56.692C135.851 56.9638 135.133 57.3847 134.514 57.9532C135.801 56.4445 137.658 55.1091 139.54 55.2817C140.456 55.3809 141.149 55.7761 141.397 56.4445C141.62 56.9638 141.743 57.1614 141.768 57.9532C141.793 58.3242 141.818 58.6209 141.818 58.7943V65.0768H141.818Z" fill="#121212"/>
<path d="M148.652 65.077C148.652 65.8688 148.974 66.3632 149.444 66.5608C149.939 66.7342 150.162 66.7585 150.385 66.7585H144.889C145.161 66.7585 145.359 66.7335 145.854 66.5608C146.374 66.3632 146.721 65.8682 146.721 65.077V58.226C146.721 57.2366 146.226 56.8905 145.705 57.014L148.652 55.1343V65.077ZM147.563 51.2515C148.231 51.2515 148.801 51.7958 148.801 52.4884C148.801 53.1811 148.232 53.7254 147.563 53.7254C146.893 53.7254 146.349 53.1568 146.349 52.4884C146.349 51.82 146.894 51.2515 147.563 51.2515Z" fill="#121212"/>
<path d="M155.56 65.0768C155.56 65.8436 155.906 66.363 156.377 66.5606C156.872 66.7339 157.095 66.7582 157.318 66.7582H151.896C152.119 66.7582 152.316 66.7332 152.812 66.5606C153.307 66.363 153.629 65.8436 153.629 65.0768V58.1515C153.629 56.9645 152.738 56.9888 152.589 57.063L155.56 55.134V65.0768H155.56ZM162.988 65.0768C162.988 65.8436 163.334 66.363 163.805 66.5606C164.3 66.7339 164.523 66.7582 164.746 66.7582H159.299C159.522 66.7582 159.719 66.7332 160.215 66.5606C160.71 66.363 161.032 65.8436 161.032 65.0768V60.4764C161.032 59.9078 161.032 59.5119 161.007 59.2644C161.007 58.9926 160.982 58.6709 160.933 58.2999C160.833 57.2363 160.536 56.9146 159.769 56.5686C159.249 56.371 158.58 56.4202 157.788 56.692C157.02 56.9638 156.302 57.3847 155.683 57.9532C156.971 56.4445 158.828 55.1091 160.709 55.2817C161.625 55.3809 162.319 55.7761 162.566 56.4445C162.789 56.9638 162.913 57.1614 162.938 57.9532C162.963 58.3242 162.987 58.6209 162.987 58.7943V65.0768H162.988Z" fill="#121212"/>
<path d="M176.506 67.4517C177.174 69.0839 176.332 70.6176 175.59 71.4087C174.327 72.7199 172.594 73.2884 170.34 73.1151C167.369 72.9175 165.71 71.4829 165.71 69.6774C165.71 68.5888 166.304 67.5994 166.8 67.2042L167.146 66.9324C166.429 68.3177 166.552 69.4798 167.468 70.4449C168.409 71.4094 169.771 71.9537 171.529 72.0771C172.791 72.1762 173.881 71.978 174.797 71.4586C175.713 70.9636 176.134 70.3208 176.06 69.5048C176.159 68.021 174.475 67.1057 171.875 67.13C168.78 67.155 167.022 66.7591 166.725 65.2753C166.502 64.36 167.171 63.544 168.681 62.8762L168.557 62.827C167.196 62.2085 166.304 60.774 166.379 59.0926C166.404 57.4354 167.344 56.2727 169.201 55.5557C170.563 55.0364 172.371 55.1356 173.535 55.7534C174.351 56.1735 174.946 56.8662 175.268 57.8313C175.614 58.7958 175.614 59.6861 175.293 60.5271C174.797 61.7142 174.054 62.4318 172.569 62.9262C171.356 63.3221 170.143 63.347 168.954 62.9754C168.063 63.4947 167.84 64.064 168.261 64.6325C168.484 65.0035 168.905 65.1768 169.523 65.2753L170.365 65.3495C170.861 65.3495 171.851 65.3245 172.173 65.3245C174.748 65.4236 175.936 66.0414 176.506 67.4517ZM172.396 62.7521C174.129 62.1337 174.055 59.3637 173.461 57.83C172.545 55.406 170.935 55.1093 169.573 55.6535C168.88 55.9253 168.434 56.5438 168.212 57.484C168.014 58.3992 168.088 59.3887 168.459 60.4523C169.326 62.6287 170.911 63.2472 172.396 62.7521ZM176.333 56.0495C175.937 55.7277 175.54 55.4559 174.699 56.1978C175.393 55.3817 176.061 54.9858 176.729 54.9858C177.943 54.9858 177.596 56.6922 176.333 56.0495Z" fill="#121212"/>
<path d="M186.237 58.6711C185.271 56.7664 183.538 55.4802 181.854 55.5052C180.69 55.5301 180.022 56.0495 179.898 57.0139C179.775 57.7558 179.873 59.1162 182.894 59.908C185.94 60.7241 186.979 61.7627 186.979 63.4199C187.004 65.3987 185.617 67.0309 182.869 67.0309C181.879 67.0309 180.938 66.8083 180.294 66.6599C180.12 66.6107 179.898 66.5365 179.651 66.4374L178.709 65.9673L178.363 65.7696L178.314 62.4554C178.982 63.9399 179.799 65.0028 180.814 65.6462C182.671 66.8582 185.494 67.0315 185.742 65.1761C186.014 63.8158 185.073 62.7029 182.275 61.9111C179.577 61.1443 178.611 60.0807 178.611 58.5227C178.636 56.6679 180.147 55.1592 182.82 55.1592C184.231 55.1592 185.37 55.5052 186.237 56.2228V58.6717L186.237 58.6711Z" fill="#121212"/>
</svg>
