<svg width="50" height="50" viewBox="0 0 50 50" fill="none" xmlns="http://www.w3.org/2000/svg">
<g clip-path="url(#clip0_2001_937)">
<g clip-path="url(#clip1_2001_937)">
<path d="M39.2642 25.4195L32.9007 19.056C32.6721 18.7891 32.2704 18.758 32.0034 18.9866C31.7365 19.2152 31.7054 19.6169 31.934 19.8838C31.9554 19.9087 31.9785 19.932 32.0034 19.9532L37.2788 25.235H12.0856C11.7341 25.235 11.4492 25.5199 11.4492 25.8714C11.4492 26.2228 11.7341 26.5077 12.0856 26.5077H37.2788L32.0034 31.783C31.7365 32.0116 31.7054 32.4134 31.934 32.6803C32.1627 32.9472 32.5644 32.9783 32.8313 32.7497C32.8562 32.7283 32.8794 32.7052 32.9007 32.6803L39.2642 26.3167C39.5109 26.0686 39.5109 25.6678 39.2642 25.4195Z" fill="white"/>
</g>
<circle cx="24.9492" cy="25.3682" r="24" stroke="white"/>
</g>
<defs>
<clipPath id="clip0_2001_937">
<rect width="49" height="49" fill="white" transform="translate(0.449219 0.868164)"/>
</clipPath>
<clipPath id="clip1_2001_937">
<rect width="28" height="28" fill="white" transform="translate(11.4492 11.8682)"/>
</clipPath>
</defs>
</svg>
