<svg width="32" height="32" viewBox="0 0 32 32" fill="none" xmlns="http://www.w3.org/2000/svg">
<g clip-path="url(#clip0_82_867)">
<path d="M16 0C7.16344 0 0 7.16344 0 16C0 24.8366 7.16344 32 16 32C24.8366 32 32 24.8366 32 16C32 7.16344 24.8366 0 16 0ZM16 30.5454C7.96675 30.5454 1.45456 24.0332 1.45456 16C1.45456 7.96675 7.96675 1.45456 16 1.45456C24.0332 1.45456 30.5454 7.96675 30.5454 16C30.5454 24.0332 24.0332 30.5454 16 30.5454Z" fill="#121212"/>
<rect x="9.75" y="9.75" width="12.5" height="12.5" rx="2.25" stroke="#121212" stroke-width="1.5"/>
<circle cx="16" cy="16" r="3.25" stroke="#121212" stroke-width="1.5"/>
<circle cx="20" cy="12" r="1" fill="#121212"/>
</g>
<defs>
<clipPath id="clip0_82_867">
<rect width="32" height="32" fill="white"/>
</clipPath>
</defs>
</svg>
