<svg width="40" height="40" viewBox="0 0 40 40" fill="none" xmlns="http://www.w3.org/2000/svg">
<path d="M20.0003 22.3333L11.8337 30.5C11.5281 30.8056 11.1392 30.9583 10.667 30.9583C10.1948 30.9583 9.80588 30.8056 9.50032 30.5C9.19477 30.1944 9.04199 29.8056 9.04199 29.3333C9.04199 28.8611 9.19477 28.4722 9.50032 28.1667L17.667 20L9.50032 11.8333C9.19477 11.5278 9.04199 11.1389 9.04199 10.6667C9.04199 10.1944 9.19477 9.80556 9.50032 9.5C9.80588 9.19445 10.1948 9.04167 10.667 9.04167C11.1392 9.04167 11.5281 9.19445 11.8337 9.5L20.0003 17.6667L28.167 9.5C28.4725 9.19445 28.8614 9.04167 29.3337 9.04167C29.8059 9.04167 30.1948 9.19445 30.5003 9.5C30.8059 9.80556 30.9587 10.1944 30.9587 10.6667C30.9587 11.1389 30.8059 11.5278 30.5003 11.8333L22.3337 20L30.5003 28.1667C30.8059 28.4722 30.9587 28.8611 30.9587 29.3333C30.9587 29.8056 30.8059 30.1944 30.5003 30.5C30.1948 30.8056 29.8059 30.9583 29.3337 30.9583C28.8614 30.9583 28.4725 30.8056 28.167 30.5L20.0003 22.3333Z" fill="#121212"/>
</svg>
