<svg width="32" height="32" viewBox="0 0 32 32" fill="none" xmlns="http://www.w3.org/2000/svg">
<g clip-path="url(#clip0_291_3273)">
<path d="M14.5454 12.3637V13.8182H13.0908V16H14.5454V22.5455H17.4544V16H19.389L19.6363 13.8182H17.4544V12.5455C17.4544 11.9564 17.5126 11.6437 18.4217 11.6437H19.6363V9.45453H17.6872C15.3599 9.45459 14.5454 10.5455 14.5454 12.3637Z" fill="white"/>
<path d="M16 0C7.16344 0 0 7.16344 0 16C0 24.8366 7.16344 32 16 32C24.8366 32 32 24.8366 32 16C32 7.16344 24.8366 0 16 0ZM16 30.5454C7.96675 30.5454 1.45456 24.0332 1.45456 16C1.45456 7.96675 7.96675 1.45456 16 1.45456C24.0332 1.45456 30.5454 7.96675 30.5454 16C30.5454 24.0332 24.0332 30.5454 16 30.5454Z" fill="white"/>
</g>
<defs>
<clipPath id="clip0_291_3273">
<rect width="32" height="32" fill="white"/>
</clipPath>
</defs>
</svg>
