<svg width="32" height="32" viewBox="0 0 32 32" fill="none" xmlns="http://www.w3.org/2000/svg">
<g clip-path="url(#clip0_291_3265)">
<path d="M11.6362 13.0909C12.4395 13.0909 13.0908 12.4397 13.0908 11.6364C13.0908 10.8331 12.4395 10.1818 11.6362 10.1818C10.8329 10.1818 10.1816 10.8331 10.1816 11.6364C10.1816 12.4397 10.8329 13.0909 11.6362 13.0909Z" fill="white"/>
<path d="M13.0907 13.8182H10.1816V21.8182H13.0907V13.8182Z" fill="white"/>
<path d="M16 0C7.16344 0 0 7.16344 0 16C0 24.8366 7.16344 32 16 32C24.8366 32 32 24.8366 32 16C32 7.16344 24.8366 0 16 0ZM16 30.5454C7.96675 30.5454 1.45456 24.0332 1.45456 16C1.45456 7.96675 7.96675 1.45456 16 1.45456C24.0332 1.45456 30.5454 7.96675 30.5454 16C30.5454 24.0332 24.0332 30.5454 16 30.5454Z" fill="white"/>
<path d="M19.8986 13.8182C17.7168 13.8182 17.455 15.1127 17.455 15.1127V13.8182H14.5459V21.8182H17.455V17.4546C17.455 17.4546 17.455 16 18.6913 16C19.4186 16 19.6368 16.6472 19.6368 17.4546V21.8182H22.5458V17.4546C22.5458 15.1782 21.5568 13.8182 19.8986 13.8182Z" fill="white"/>
</g>
<defs>
<clipPath id="clip0_291_3265">
<rect width="32" height="32" fill="white"/>
</clipPath>
</defs>
</svg>
