<svg width="218" height="218" viewBox="0 0 218 218" fill="none" xmlns="http://www.w3.org/2000/svg">
<path d="M171.472 81.9013C170.887 80.8184 170.33 79.9238 169.799 79.2172C169.282 78.5151 168.789 77.9743 168.321 77.5946C167.857 77.224 167.417 77.0034 167.002 76.9328C166.592 76.8712 166.199 76.935 165.824 77.1242C165.467 77.3044 165.187 77.518 164.987 77.7651C164.786 78.0121 164.649 78.2768 164.578 78.5593C164.52 78.8462 164.517 79.1442 164.571 79.4533C164.637 79.7668 164.749 80.0801 164.905 80.3934C165.114 80.814 165.346 81.1786 165.6 81.4871C165.864 81.7911 166.151 82.0547 166.464 82.2779C166.78 82.51 167.12 82.7085 167.481 82.8733C167.847 83.0471 168.24 83.1961 168.659 83.3204L171.472 81.9013ZM173.171 71.3842C174.269 71.771 175.212 72.3084 176.002 72.9964C176.792 73.6843 177.449 74.5563 177.976 75.6124C178.355 76.3731 178.566 77.1119 178.61 77.8287C178.655 78.5456 178.554 79.218 178.308 79.846C178.062 80.474 177.674 81.0509 177.142 81.5766C176.611 82.1023 175.966 82.5567 175.207 82.9396L166.528 87.3188L166 86.2583C165.884 86.0256 165.83 85.8286 165.839 85.6672C165.857 85.5014 165.96 85.3263 166.148 85.1421L167.3 84.2248C166.791 84.0335 166.322 83.8332 165.894 83.6237C165.474 83.4098 165.082 83.1599 164.716 82.8741C164.359 82.5838 164.029 82.2464 163.726 81.8619C163.418 81.4908 163.135 81.0457 162.876 80.5266C162.613 79.9986 162.437 79.4658 162.348 78.9283C162.268 78.3864 162.288 77.8665 162.409 77.3688C162.534 76.88 162.769 76.4201 163.113 75.989C163.47 75.5623 163.957 75.1935 164.573 74.8827C165.109 74.6123 165.696 74.501 166.334 74.5485C166.981 74.5915 167.662 74.8473 168.375 75.3159C169.089 75.7845 169.832 76.4904 170.604 77.4338C171.384 78.3727 172.178 79.6073 172.985 81.1376L174.043 80.6037C175.097 80.0721 175.778 79.4429 176.086 78.7161C176.403 77.9849 176.343 77.1807 175.907 76.3036C175.612 75.7129 175.289 75.2545 174.936 74.9283C174.597 74.6066 174.261 74.3454 173.926 74.1447C173.605 73.9484 173.315 73.7811 173.056 73.6429C172.811 73.5092 172.637 73.3394 172.534 73.1335C172.454 72.9724 172.425 72.8134 172.447 72.6565C172.479 72.4951 172.537 72.3426 172.622 72.199L173.171 71.3842Z" fill="white" fill-opacity="0.7"/>
<path d="M172.91 97.5937C172.319 98.1726 171.926 98.7686 171.732 99.3819C171.539 100.005 171.487 100.664 171.575 101.358C171.756 102.776 172.395 103.791 173.491 104.402C174.587 105.014 176.126 105.178 178.106 104.897C179.948 104.635 181.257 104.105 182.033 103.308C182.819 102.52 183.134 101.506 182.976 100.266C182.866 99.4036 182.572 98.6781 182.093 98.0898C181.616 97.5115 180.982 97.001 180.189 96.5584L172.91 97.5937ZM182.165 96.2774C182.979 96.8078 183.654 97.4388 184.191 98.1701C184.729 98.9114 185.064 99.8027 185.197 100.844C185.309 101.727 185.242 102.544 184.995 103.296C184.75 104.058 184.337 104.732 183.756 105.32C183.185 105.906 182.461 106.393 181.583 106.78C180.706 107.177 179.698 107.457 178.559 107.619C177.341 107.792 176.213 107.801 175.175 107.646C174.137 107.491 173.225 107.181 172.44 106.717C171.666 106.262 171.03 105.661 170.531 104.914C170.043 104.166 169.735 103.291 169.607 102.289C169.48 101.297 169.557 100.433 169.836 99.6969C170.126 98.969 170.581 98.3036 171.2 97.7007L169.816 97.7612C169.43 97.7354 169.212 97.534 169.164 97.1572L168.946 95.4465L190.827 92.3343L191.167 94.997L182.165 96.2774Z" fill="white" fill-opacity="0.7"/>
<path d="M183.969 124.389C183.743 125.475 183.357 126.419 182.812 127.221C182.267 128.023 181.596 128.669 180.799 129.158C180.002 129.648 179.094 129.964 178.073 130.105C177.06 130.259 175.969 130.225 174.8 130.002C173.62 129.778 172.594 129.41 171.719 128.898C170.843 128.396 170.135 127.773 169.596 127.03C169.056 126.286 168.695 125.445 168.513 124.505C168.341 123.566 168.368 122.554 168.594 121.468C168.823 120.372 169.206 119.417 169.743 118.603C170.288 117.802 170.959 117.156 171.756 116.666C172.553 116.177 173.457 115.855 174.47 115.702C175.481 115.558 176.576 115.598 177.755 115.822C178.925 116.044 179.948 116.406 180.824 116.909C181.708 117.422 182.419 118.051 182.959 118.795C183.499 119.538 183.86 120.38 184.042 121.32C184.222 122.27 184.198 123.293 183.969 124.389ZM170.643 121.857C170.337 123.325 170.6 124.515 171.432 125.425C172.274 126.338 173.579 126.963 175.348 127.299C177.127 127.637 178.588 127.538 179.731 127.002C180.875 126.466 181.6 125.465 181.906 123.997C182.061 123.253 182.069 122.578 181.929 121.972C181.788 121.375 181.515 120.845 181.111 120.382C180.705 119.928 180.168 119.541 179.499 119.221C178.838 118.912 178.065 118.674 177.181 118.506C175.412 118.17 173.955 118.269 172.812 118.805C171.676 119.352 170.953 120.37 170.643 121.857Z" fill="white" fill-opacity="0.7"/>
<path d="M171.234 153.558L158.048 145.999L158.857 144.631C159.05 144.304 159.333 144.19 159.705 144.288L161.231 144.92C160.933 143.989 160.798 143.059 160.824 142.129C160.86 141.205 161.147 140.286 161.687 139.374C162.109 138.66 162.6 138.095 163.16 137.678C163.724 137.275 164.332 137.013 164.985 136.892C165.637 136.771 166.328 136.792 167.056 136.956C167.779 137.128 168.514 137.428 169.26 137.856L177.669 142.676L176.31 144.974L167.901 140.154C166.903 139.582 165.999 139.363 165.187 139.497C164.371 139.64 163.688 140.176 163.138 141.105C162.736 141.785 162.523 142.509 162.498 143.279C162.476 144.061 162.604 144.867 162.882 145.694L172.592 151.26L171.234 153.558Z" fill="white" fill-opacity="0.7"/>
<path d="M146.847 156.837C147.756 156.054 148.677 155.703 149.608 155.785C150.532 155.874 151.407 156.394 152.233 157.345L158.328 164.371L159.714 163.177C159.835 163.072 159.967 163.018 160.109 163.014C160.258 163.018 160.398 163.095 160.529 163.246L161.227 164.051L159.547 165.914L162.158 169.862C162.234 169.995 162.263 170.128 162.246 170.261C162.228 170.408 162.155 170.537 162.026 170.648L161.003 171.529L157.573 167.575L154.243 170.443L152.975 168.981L156.305 166.113L150.328 159.224C149.908 158.74 149.48 158.483 149.042 158.451C148.604 158.419 148.199 158.563 147.828 158.883C147.616 159.065 147.457 159.248 147.351 159.432C147.244 159.629 147.164 159.811 147.109 159.977C147.054 160.143 147.012 160.285 146.982 160.403C146.951 160.535 146.905 160.627 146.845 160.679C146.739 160.771 146.588 160.788 146.394 160.732L144.967 160.277C145.034 159.652 145.231 159.033 145.56 158.42C145.895 157.815 146.324 157.287 146.847 156.837Z" fill="white" fill-opacity="0.7"/>
<path d="M104.377 186.685L111.986 166.527C112.067 166.322 112.175 166.155 112.31 166.027C112.435 165.899 112.637 165.827 112.916 165.811L114.893 165.693L112.384 171.88L119.265 185.8L116.958 185.937C116.729 185.951 116.546 185.902 116.411 185.79C116.267 185.688 116.166 185.569 116.11 185.432L111.637 176.115C111.459 175.705 111.305 175.274 111.175 174.821C111.055 175.299 110.925 175.752 110.783 176.181L107.258 185.958C107.205 186.122 107.111 186.257 106.976 186.365C106.831 186.484 106.668 186.549 106.489 186.56L104.377 186.685Z" fill="white" fill-opacity="0.7"/>
<path d="M86.6842 183.831C85.6142 183.534 84.7028 183.09 83.95 182.497C83.1971 181.904 82.6136 181.198 82.1994 180.378C81.7852 179.557 81.5567 178.638 81.514 177.62C81.4588 176.609 81.6002 175.533 81.938 174.393C82.2787 173.242 82.7492 172.253 83.3495 171.423C83.9402 170.592 84.6357 169.934 85.436 169.451C86.2363 168.967 87.118 168.667 88.0809 168.551C89.041 168.443 90.0561 168.538 91.126 168.835C92.2056 169.135 93.1281 169.577 93.8934 170.163C94.6463 170.755 95.2298 171.462 95.644 172.282C96.0582 173.102 96.2929 174.018 96.3481 175.029C96.3937 176.038 96.2461 177.117 95.9054 178.267C95.5675 179.408 95.1033 180.394 94.5126 181.226C93.9095 182.065 93.2077 182.726 92.4074 183.209C91.6071 183.693 90.7254 183.993 89.7625 184.109C88.7899 184.223 87.7638 184.13 86.6842 183.831ZM90.5341 170.834C89.0882 170.433 87.8666 170.612 86.8694 171.373C85.8693 172.143 85.1138 173.391 84.6027 175.116C84.0889 176.851 84.0452 178.302 84.4717 179.468C84.8983 180.634 85.8345 181.417 87.2804 181.818C88.013 182.021 88.6909 182.075 89.3142 181.978C89.9278 181.878 90.4873 181.645 90.9927 181.276C91.4885 180.906 91.9302 180.401 92.3177 179.761C92.6928 179.129 93.0081 178.381 93.2636 177.519C93.7747 175.793 93.8169 174.348 93.3904 173.182C92.9514 172.023 91.9992 171.24 90.5341 170.834Z" fill="white" fill-opacity="0.7"/>
<path d="M58.6184 169.26L67.3918 156.858L68.7005 157.761C69.0133 157.977 69.1041 158.264 68.9727 158.623L68.2016 160.077C69.1663 159.856 70.1161 159.795 71.0508 159.894C71.9798 160.001 72.8806 160.355 73.7531 160.958C74.4363 161.429 74.9633 161.957 75.3342 162.541C75.6911 163.128 75.9022 163.747 75.9674 164.4C76.0327 165.052 75.9509 165.731 75.722 166.435C75.4849 167.134 75.1181 167.834 74.6215 168.536L69.0266 176.446L66.8289 174.928L72.4238 167.019C73.0878 166.081 73.3877 165.206 73.3234 164.397C73.2509 163.581 72.7702 162.867 71.8812 162.253C71.231 161.804 70.5192 161.537 69.7458 161.453C68.9585 161.371 68.1355 161.435 67.2771 161.644L60.8161 170.777L58.6184 169.26Z" fill="white" fill-opacity="0.7"/>
<path d="M42.0078 127.598C42.4026 128.763 42.8024 129.738 43.2073 130.522C43.5997 131.3 43.9949 131.915 44.3929 132.366C44.788 132.807 45.184 133.097 45.5809 133.234C45.9749 133.362 46.3723 133.363 46.773 133.237C47.1547 133.117 47.465 132.951 47.704 132.74C47.9431 132.528 48.1213 132.289 48.2388 132.021C48.3439 131.747 48.3959 131.453 48.3948 131.139C48.3813 130.819 48.3238 130.491 48.2223 130.156C48.0861 129.706 47.9185 129.308 47.7195 128.962C47.511 128.619 47.2716 128.312 47.0013 128.04C46.7281 127.759 46.4273 127.508 46.0989 127.287C45.7676 127.055 45.4057 126.844 45.0134 126.653L42.0078 127.598ZM38.5829 137.713C37.5665 137.153 36.7268 136.468 36.0639 135.66C35.4011 134.852 34.8986 133.883 34.5565 132.754C34.3101 131.941 34.2248 131.176 34.3006 130.461C34.3764 129.745 34.5877 129.097 34.9343 128.517C35.2809 127.936 35.7596 127.43 36.3704 126.996C36.9812 126.563 37.6921 126.219 38.5031 125.964L47.7777 123.049L48.1212 124.183C48.1966 124.432 48.2164 124.635 48.1807 124.793C48.1354 124.954 48.005 125.11 47.7897 125.262L46.5027 125.981C46.9717 126.252 47.3996 126.527 47.7865 126.803C48.1638 127.083 48.5088 127.394 48.8214 127.735C49.1244 128.08 49.3932 128.467 49.6278 128.897C49.869 129.313 50.0737 129.799 50.2418 130.354C50.4129 130.919 50.4975 131.474 50.4955 132.019C50.4841 132.568 50.3774 133.078 50.1756 133.55C49.9709 134.013 49.6634 134.429 49.253 134.799C48.8301 135.163 48.2895 135.448 47.6311 135.655C47.0586 135.835 46.4621 135.85 45.8417 135.699C45.2117 135.551 44.5843 135.188 43.9594 134.608C43.3346 134.029 42.7209 133.211 42.1183 132.153C41.5061 131.099 40.9302 129.75 40.3905 128.106L39.2598 128.462C38.1339 128.816 37.3586 129.327 36.9339 129.995C36.4998 130.666 36.4247 131.47 36.7088 132.408C36.9002 133.039 37.1422 133.545 37.4348 133.924C37.7151 134.297 38.0032 134.61 38.2992 134.863C38.5828 135.109 38.8405 135.322 39.0723 135.5C39.2917 135.672 39.4347 135.868 39.5014 136.088C39.5535 136.261 39.5555 136.423 39.5073 136.574C39.4496 136.728 39.367 136.87 39.2595 136.998L38.5829 137.713Z" fill="white" fill-opacity="0.7"/>
<path d="M43.2153 111.832C43.8949 111.357 44.3812 110.834 44.6743 110.26C44.9678 109.677 45.1285 109.036 45.1563 108.337C45.2132 106.908 44.7518 105.803 43.772 105.021C42.7921 104.239 41.3022 103.825 39.302 103.779C37.4419 103.737 36.0633 104.046 35.1662 104.705C34.2594 105.354 33.7812 106.303 33.7315 107.552C33.6968 108.421 33.8666 109.184 34.2408 109.843C34.6153 110.491 35.1567 111.098 35.8648 111.664L43.2153 111.832ZM33.8697 111.619C33.1551 110.963 32.5937 110.23 32.1855 109.421C31.7778 108.602 31.5948 107.668 31.6365 106.619C31.672 105.73 31.8738 104.935 32.2421 104.233C32.6108 103.522 33.1301 102.924 33.8 102.439C34.46 101.954 35.2551 101.593 36.1855 101.354C37.1164 101.105 38.1568 100.994 39.3069 101.02C40.5369 101.048 41.6511 101.223 42.6492 101.546C43.6473 101.869 44.495 102.323 45.1924 102.909C45.8802 103.484 46.4079 104.181 46.7757 104.999C47.1335 105.817 47.2923 106.731 47.2521 107.74C47.2123 108.739 46.9937 109.578 46.5962 110.259C46.1891 110.93 45.6304 111.512 44.92 112.006L46.2948 112.172C46.6716 112.26 46.8525 112.495 46.8373 112.874L46.7687 114.597L24.6722 114.094L24.7791 111.412L33.8697 111.619Z" fill="white" fill-opacity="0.7"/>
<path d="M36.7422 83.5301C37.1437 82.4956 37.679 81.6277 38.3481 80.9265C39.0172 80.2252 39.7848 79.6988 40.6507 79.3473C41.5167 78.9957 42.4645 78.8342 43.4941 78.8627C44.518 78.8784 45.5882 79.0924 46.7049 79.5047C47.831 79.9204 48.783 80.453 49.5609 81.1025C50.3424 81.7427 50.9382 82.4741 51.3485 83.2968C51.7587 84.1195 51.9765 85.0097 52.0018 85.9674C52.0177 86.9215 51.8249 87.9159 51.4234 88.9504C51.0183 89.9942 50.4841 90.8731 49.8207 91.5871C49.1516 92.2884 48.384 92.8148 47.5181 93.1663C46.6521 93.5179 45.7072 93.6858 44.6833 93.6701C43.6631 93.645 42.59 93.4246 41.4639 93.0089C40.3472 92.5966 39.3981 92.0704 38.6166 91.4303C37.8293 90.7773 37.2306 90.0395 36.8203 89.2168C36.4101 88.394 36.1923 87.5039 36.167 86.5462C36.1454 85.5793 36.3371 84.5739 36.7422 83.5301ZM49.4668 88.228C50.0094 86.83 49.9453 85.613 49.2746 84.5769C48.5944 83.5373 47.4098 82.7057 45.7207 82.0821C44.0222 81.455 42.5652 81.3114 41.3498 81.6511C40.1343 81.9908 39.2554 82.8597 38.7128 84.2576C38.4379 84.9659 38.3194 85.6307 38.3572 86.252C38.3986 86.864 38.5805 87.432 38.9029 87.9559C39.2289 88.4705 39.6953 88.941 40.3023 89.3675C40.9034 89.7813 41.6263 90.144 42.4708 90.4558C44.1599 91.0795 45.6122 91.2214 46.8277 90.8817C48.0373 90.5291 48.9171 89.6446 49.4668 88.228Z" fill="white" fill-opacity="0.7"/>
<path d="M54.0885 56.7702L65.8278 66.4218L64.8071 67.6406C64.5632 67.9319 64.2662 67.9983 63.9161 67.84L62.5182 66.9624C62.6585 67.932 62.6393 68.8741 62.4605 69.7885C62.2741 70.6965 61.8406 71.5568 61.1602 72.3694C60.6274 73.0056 60.0512 73.4833 59.4318 73.8024C58.8111 74.1074 58.1695 74.266 57.5072 74.278C56.8449 74.2901 56.1689 74.1549 55.4791 73.8726C54.7958 73.5826 54.1219 73.1644 53.4575 72.6182L45.9712 66.4633L47.6852 64.4166L55.1714 70.5715C56.0599 71.3019 56.9144 71.6679 57.7349 71.6695C58.5619 71.6634 59.322 71.2464 60.0153 70.4185C60.5224 69.8129 60.8513 69.132 61.002 68.3757C61.1513 67.6054 61.1572 66.7884 61.0196 65.9246L52.3745 58.8169L54.0885 56.7702Z" fill="white" fill-opacity="0.7"/>
<path d="M78.6268 57.5066C77.6028 58.1324 76.6395 58.3285 75.7367 58.0951C74.8425 57.8564 74.0682 57.1987 73.4136 56.1222L68.5822 48.1762L67.0207 49.1306C66.8841 49.214 66.7456 49.2459 66.6049 49.2264C66.4591 49.1983 66.3343 49.0989 66.2304 48.928L65.6771 48.018L67.6382 46.4504L65.724 42.1182C65.6716 41.9744 65.6648 41.838 65.7034 41.709C65.7453 41.5662 65.8388 41.4504 65.9838 41.3618L67.1358 40.6578L69.8554 45.1306L73.6057 42.8386L74.611 44.4919L70.8606 46.7839L75.5985 54.576C75.9309 55.1228 76.31 55.4479 76.7355 55.5511C77.1611 55.6543 77.583 55.5781 78.0011 55.3226C78.24 55.1766 78.4266 55.0215 78.5609 54.8574C78.6986 54.6795 78.808 54.513 78.8893 54.3579C78.9705 54.2028 79.0356 54.0693 79.0846 53.9573C79.1369 53.8316 79.1972 53.7479 79.2654 53.7061C79.3849 53.6331 79.5357 53.6406 79.7179 53.7285L81.0459 54.4111C80.8767 55.0183 80.5797 55.5983 80.155 56.1508C79.725 56.6949 79.2156 57.1468 78.6268 57.5066Z" fill="white" fill-opacity="0.7"/>
<path d="M112.349 33.5878L105.252 53.9289C105.176 54.1359 105.072 54.3052 104.941 54.4367C104.82 54.5673 104.619 54.6444 104.34 54.668L102.367 54.8346L104.719 48.5871L97.4879 34.8429L99.7904 34.6485C100.02 34.6291 100.203 34.6738 100.341 34.7825C100.488 34.8805 100.591 34.9971 100.651 35.1326L105.359 44.3349C105.547 44.7403 105.712 45.1678 105.853 45.6173C105.961 45.1368 106.08 44.6803 106.21 44.248L109.487 34.3863C109.536 34.2217 109.627 34.0836 109.759 33.9721C109.901 33.8497 110.062 33.781 110.241 33.7658L112.349 33.5878Z" fill="white" fill-opacity="0.7"/>
<path d="M128.095 35.3471C129.191 35.5248 130.146 35.8668 130.959 36.3733C131.772 36.8798 132.43 37.5179 132.931 38.2877C133.432 39.0575 133.76 39.946 133.914 40.9531C134.079 41.9519 134.056 43.0367 133.845 44.2074C133.632 45.388 133.272 46.4232 132.766 47.3133C132.27 48.2049 131.651 48.9347 130.908 49.5029C130.165 50.071 129.321 50.4658 128.377 50.6874C127.434 50.8991 126.415 50.9161 125.319 50.7384C124.213 50.5591 123.247 50.2204 122.423 49.7222C121.609 49.2157 120.952 48.5776 120.451 47.8077C119.949 47.0379 119.616 46.1536 119.451 45.1547C119.295 44.1575 119.324 43.0686 119.537 41.888C119.748 40.7173 120.102 39.6862 120.598 38.7946C121.106 37.8947 121.731 37.1607 122.474 36.5926C123.217 36.0245 124.06 35.6296 125.005 35.4081C125.959 35.1882 126.989 35.1678 128.095 35.3471ZM125.689 48.6872C127.17 48.9273 128.365 48.6147 129.273 47.7494C130.183 46.8742 130.798 45.5512 131.117 43.7804C131.438 41.9997 131.323 40.5534 130.772 39.4413C130.22 38.3292 129.204 37.6532 127.723 37.413C126.972 37.2914 126.292 37.3128 125.683 37.4774C125.084 37.6435 124.554 37.9372 124.092 38.3585C123.639 38.7813 123.255 39.3317 122.94 40.0096C122.636 40.6792 122.404 41.4568 122.245 42.3422C121.925 44.113 122.041 45.5544 122.593 46.6665C123.156 47.7703 124.188 48.4439 125.689 48.6872Z" fill="white" fill-opacity="0.7"/>
<path d="M156.655 51.5252L147.568 63.6997L146.283 62.7621C145.976 62.5381 145.893 62.2483 146.033 61.8929L146.841 60.4591C145.872 60.6548 144.921 60.6912 143.989 60.5682C143.064 60.4372 142.173 60.0592 141.316 59.4342C140.646 58.9447 140.133 58.4032 139.777 57.8095C139.436 57.2136 139.241 56.5886 139.192 55.9345C139.144 55.2803 139.243 54.6039 139.49 53.9053C139.745 53.2127 140.13 52.5218 140.644 51.8327L146.439 44.069L148.596 45.6434L142.801 53.4071C142.113 54.3285 141.791 55.1949 141.834 56.0063C141.886 56.8236 142.348 57.5507 143.22 58.1875C143.859 58.6533 144.563 58.9385 145.334 59.043C146.118 59.1454 146.942 59.1032 147.806 58.9164L154.498 49.9508L156.655 51.5252Z" fill="white" fill-opacity="0.7"/>
</svg>
